<svg xmlns="http://www.w3.org/2000/svg" width="400" height="323.112" display="block"><g fill-rule="evenodd"><path/><path d="M21.66 137.43v125.14H48c14.47 0 26.55-.1 26.83-.2.47-.17.5-5.05.5-51.9v-51.7h94.43v103.8h68.2c60.18 0 68.28-.06 68.7-.5.32-.3 1.12-.47 2.27-.47 1.13 0 1.95-.17 2.25-.48.3-.28 1.2-.5 2.3-.53 1.26-.05 1.8-.2 1.8-.5 0-.32.5-.44 1.78-.44 1.36 0 1.78-.1 1.78-.5 0-.34.37-.47 1.45-.47 1.07 0 1.45-.13 1.45-.5 0-.34.35-.48 1.26-.48.7 0 1.33-.15 1.4-.33.05-.2.66-.36 1.34-.4.7 0 1.3-.22 1.4-.46.1-.25.66-.44 1.28-.44.7 0 1.18-.18 1.3-.48.1-.28.58-.5 1.1-.5.63 0 .95-.15.95-.47 0-.33.32-.5.97-.5.65 0 .97-.15.97-.47 0-.3.32-.5.82-.5.5 0 .8-.17.8-.47 0-.34.37-.48 1.3-.48.7 0 1.3-.14 1.3-.32s.22-.32.5-.32c.26 0 .57-.22.67-.5.1-.26.52-.47.95-.47.47 0 .77-.18.77-.48 0-.32.33-.48.98-.48.64 0 .96-.16.96-.5 0-.3.3-.47.82-.47.45 0 .9-.22 1-.5.1-.26.4-.47.65-.47.24 0 .44-.22.44-.5 0-.3.3-.47.8-.47.46 0 .82-.15.82-.33 0-.18.2-.32.48-.32.26 0 .48-.22.48-.5 0-.26.3-.47.68-.47.38 0 1.34-.65 2.16-1.45.8-.8 1.74-1.45 2.07-1.45.32 0 .6-.22.6-.5 0-.25.15-.47.35-.47.2 0 .93-.58 1.62-1.3.7-.7 1.47-1.3 1.75-1.3.26 0 .57-.2.67-.47.1-.27.4-.5.64-.5.25 0 .46-.2.46-.47 0-.28.23-.5.52-.5.33 0 .45-.18.33-.48-.1-.3 0-.5.32-.5.57 0 1.42-.75 1.42-1.26 0-.2.22-.34.5-.34.26 0 .47-.22.47-.5 0-.26.23-.47.5-.47.26 0 .48-.22.48-.5 0-.26.22-.47.5-.47.26 0 .47-.3.47-.64 0-.35.58-1.2 1.3-1.9.7-.72 1.3-1.45 1.3-1.64 0-.2.2-.35.47-.35.27 0 .5-.22.5-.5 0-.25.2-.47.48-.47.32 0 .48-.33.48-.97 0-.53.14-.96.32-.96.5 0 1.62-1.07 1.62-1.53 0-.22.14-.4.32-.4.17 0 .4-.37.52-.8.1-.46.33-.82.5-.82.15 0 .28-.2.28-.45s.22-.53.48-.64c.27-.1.5-.5.5-.85 0-.37.2-.66.47-.66.26 0 .46-.12.44-.25-.14-.9.1-1.7.52-1.7.33 0 .5-.32.5-.97 0-.64.15-.97.47-.97.27 0 .5-.2.5-.47 0-.27.1-.5.25-.5.43 0 1.35-2.4 1.35-3.5 0-.7.16-1 .5-1 .3 0 .48-.32.48-.82 0-.5.2-.8.5-.8.33 0 .47-.34.47-1.12 0-.9.1-1.08.5-.93.34.13.5.03.46-.25-.2-1.34.05-2.55.5-2.55.35 0 .48-.36.48-1.26 0-.76.2-1.34.45-1.44.24-.1.45-.7.48-1.4.02-.68.2-1.3.37-1.35.18-.05.33-.68.33-1.38 0-.84.17-1.34.5-1.46.35-.14.47-.72.47-2.25 0-1.62.1-2.06.5-2.06.38 0 .47-.52.47-2.75 0-2.24.1-2.76.5-2.76s.47-1.7.47-13.26c0-11.57-.06-13.26-.48-13.26-.4 0-.5-.46-.5-2.26 0-1.8-.1-2.26-.47-2.26-.4 0-.5-.45-.5-2.1 0-1.6-.12-2.17-.48-2.3-.33-.14-.5-.66-.5-1.62 0-.78-.13-1.42-.3-1.42-.2 0-.33-.6-.33-1.3 0-.86-.18-1.37-.5-1.5-.32-.12-.5-.62-.5-1.44 0-.88-.13-1.26-.45-1.26s-.5-.44-.57-1.37c-.06-.9-.24-1.36-.5-1.3-.24.04-.4-.26-.4-.74 0-.45-.22-.9-.5-1-.27-.1-.47-.6-.47-1.14 0-.54-.2-1.02-.48-1.13-.3-.13-.5-.62-.5-1.3 0-.6-.13-1.1-.3-1.1-.2 0-.33-.2-.33-.48 0-.26-.15-.48-.32-.48-.18 0-.24-.22-.13-.5.1-.25.02-.47-.17-.47-.2 0-.36-.22-.36-.5 0-.25-.22-.47-.5-.47-.3 0-.47-.32-.47-.97 0-.65-.16-.97-.5-.97-.3 0-.47-.3-.47-.8s-.2-.82-.5-.82-.47-.3-.47-.82c0-.45-.2-.9-.48-1-.26-.1-.48-.4-.48-.64 0-.25-.13-.45-.3-.45-.15 0-.37-.36-.48-.8-.1-.45-.35-.82-.52-.82-.18 0-.32-.2-.32-.47 0-.27-.22-.5-.48-.5-.27 0-.5-.2-.5-.47 0-.27-.2-.5-.47-.5-.33 0-.5-.3-.5-.96 0-.64-.15-.97-.47-.97-.27 0-.5-.2-.5-.48 0-.27-.15-.5-.34-.5-.44 0-1.27-.8-1.27-1.26 0-.2-.22-.35-.5-.35-.26 0-.48-.22-.48-.5 0-.26-.22-.47-.48-.47-.28 0-.5-.3-.5-.7 0-.7-1.93-2.86-2.56-2.86-.18 0-.34-.14-.34-.32 0-.5-1.05-1.6-1.35-1.42-.16.1-.38-.1-.5-.4-.4-1.03-1.2-1.74-1.95-1.74-.4 0-.73-.16-.73-.35 0-.45-.83-1.28-1.27-1.28-.2 0-.35-.22-.35-.48 0-.27-.22-.5-.5-.5-.25 0-.47-.2-.47-.47 0-.27-.22-.5-.5-.5-.25 0-.47-.2-.47-.5 0-.26-.18-.46-.4-.43-.9.1-1.54-.05-1.54-.38 0-.68-1.9-2.23-2.72-2.23-.53 0-.84-.18-.84-.5 0-.26-.22-.47-.48-.47-.27 0-.5-.22-.5-.5 0-.3-.3-.47-.8-.47s-.8-.2-.8-.5c0-.27-.2-.48-.45-.48s-.54-.22-.64-.5c-.1-.26-.57-.47-1.02-.47-.5 0-.8-.2-.8-.5 0-.27-.3-.47-.7-.47-.4 0-1.2-.37-1.77-.8-.57-.46-1.28-.82-1.56-.82-.27 0-.5-.22-.5-.5 0-.3-.33-.47-.97-.47-.65 0-.97-.17-.97-.5 0-.3-.3-.48-.78-.48-.42 0-.85-.22-.96-.5-.1-.25-.54-.47-.97-.47-.44 0-.87-.22-.98-.5-.32-.84-1.93-.57-2.8.48-.44.53-.98.97-1.2.97-.23 0-.4.24-.4.5 0 .27-.23.5-.5.5-.26 0-.48.2-.48.47 0 .27-.22.5-.48.5-.27 0-.5.2-.5.47 0 .27-.12.5-.3.5-.15 0-.4.3-.5.7-.13.37-.58 1-1 1.4-.43.4-.77.88-.77 1.08 0 .2-.24.37-.5.37-.3 0-.5.17-.46.4.1.85-.04 1.53-.34 1.53-.18 0-.62.25-.97.55-.8.7-.94 3-.17 3 .27 0 .5.22.5.5 0 .25.14.47.32.47.2 0 .68.37 1.1.8.4.46 1.06.82 1.44.82.4 0 .8.22.9.48.1.27.5.5.92.5.4 0 .82.2.92.47.1.27.54.5.97.5.43 0 .87.2.97.47.1.26.47.48.8.48.35 0 .7.22.82.48.1.27.55.5 1 .5.45 0 .82.12.82.28 0 .16.4.4.87.5.5.13 1.2.58 1.6 1 .42.44 1.04.8 1.4.8.38 0 .67.2.67.48 0 .27.22.5.48.5.27 0 .5.2.5.47 0 .3.3.48.96.48.54 0 .98.15.98.33 0 .4 1.84 2.26 2.24 2.26.15 0 .36.22.46.5.1.26.56.47 1 .47.52 0 .82.2.82.5 0 .26.22.47.5.47.26 0 .48.16.48.36 0 .43 2.8 3.2 3.24 3.2.17 0 .3.22.3.5 0 .25.23.47.5.47.26 0 .48.22.48.5 0 .25.22.47.5.47.25 0 .47.17.47.37 0 .2.37.7.8 1.12.45.4.82 1.03.82 1.4 0 .37.2.66.47.66.27 0 .5.22.5.48 0 .27.2.5.47.5.27 0 .5.2.5.47 0 .28.2.5.47.5.3 0 .5.3.5.72 0 .4.33 1 .73 1.37.4.35 1.02 1.26 1.38 2.02.36.75.83 1.37 1.05 1.37.22 0 .4.36.4.8 0 .46.23.92.5 1.02.26.1.48.47.48.8 0 .35.2.7.48.82.28.1.5.4.5.63 0 .25.22.45.48.45.27 0 .5.28.5.6 0 .34.2 1.14.47 1.8.27.63.5 1.23.5 1.32-.03.72.03.82.3.65.2-.13.33.25.33.94 0 .8.15 1.15.5 1.15.34 0 .47.35.47 1.32 0 1.05.1 1.3.5 1.14.38-.15.47.1.47 1.27 0 1 .16 1.5.5 1.64.3.12.47.63.47 1.44 0 .92.13 1.27.48 1.27.38 0 .48.43.48 1.92 0 1.04.15 1.95.33 2 .17.07.33 1.18.35 2.47.02 1.54.2 2.52.48 2.8.68.68.66 20.7 0 21.38-.33.32-.48 1.22-.48 2.8 0 1.34-.16 2.4-.35 2.46-.18.07-.34.98-.34 2.02 0 1.6-.08 1.88-.5 1.72-.27-.1-.47-.07-.44.1.2 1.15-.08 2.7-.5 2.7-.36 0-.5.35-.5 1.25 0 .8-.17 1.32-.48 1.44-.27.1-.5.5-.5.87 0 .38-.2.9-.47 1.17-.27.27-.5.9-.5 1.44 0 .56-.2 1.05-.47 1.16-.27.1-.5.53-.5.95 0 .44-.13.8-.3.8-.2 0-.33.43-.33.96 0 .65-.17.97-.5.97-.25 0-.47.28-.47.64 0 .43-.16.57-.5.45-.34-.14-.47.04-.47.65 0 .54-.18.85-.5.85-.25 0-.46.1-.44.24.13.9-.1 1.7-.53 1.7-.27 0-.48.2-.48.48 0 .27-.23.5-.5.5s-.48.2-.48.47c0 .28-.15.5-.33.5-.2 0-.33.36-.33.8 0 .5-.18.8-.5.8-.25 0-.47.23-.47.5s-.22.48-.5.48c-.25 0-.47.22-.47.5 0 .25-.22.47-.5.47-.25 0-.47.22-.47.5 0 .25-.22.47-.5.47-.25 0-.47.17-.47.37 0 .2-.38.7-.82 1.1-.44.42-.8.9-.8 1.1 0 .18-.16.33-.35.33-.18 0-.67.37-1.08.8-.42.46-.92.82-1.12.82-.2 0-.37.22-.37.48 0 .27-.22.5-.48.5-.27 0-.5.2-.5.47 0 .27-.18.5-.42.5s-.62.35-.86.8c-.24.44-.63.8-.87.8-.23 0-.43.23-.43.5 0 .3-.3.48-.8.48-.46 0-.92.22-1.02.48-.1.27-.4.5-.63.5-.25 0-.45.2-.45.47 0 .27-.22.5-.5.5-.26 0-.48.2-.48.47 0 .28-.3.5-.7.5-.37 0-1 .35-1.43.8-.42.44-1.02.8-1.34.8-.33 0-.84.3-1.14.65-.3.36-.77.55-1.05.44-.3-.13-.5 0-.5.32 0 .34-.27.53-.8.53-.46 0-.9.2-1 .48-.12.27-.4.5-.65.5s-.45.2-.45.47c0 .3-.3.5-.8.5-.42 0-.87.13-.98.3-.12.2-.47.33-.8.33-.32 0-.76.22-1 .5-.2.25-.87.47-1.45.47-.64 0-1.13.2-1.24.5-.1.25-.55.47-1 .47-.5 0-.8.18-.8.5 0 .34-.37.47-1.27.47-.82 0-1.33.17-1.45.5-.1.25-.55.47-1 .47-.5 0-.82.2-.82.5 0 .36-.38.48-1.46.48-.8 0-1.45.13-1.45.28 0 .15-.76.37-1.7.48-.93.1-1.74.35-1.8.53-.06.18-.7.33-1.4.33-.83 0-1.33.17-1.45.48-.13.35-.68.5-1.93.5-1.34 0-1.75.1-1.75.47 0 .43-4.8.5-41.22.5h-41.23V12.3h-54v95.38H75.35l-.1-47.62-.07-47.6-26.76-.1-26.76-.08v125.15M225.72 15.05c0 2.15-.1 2.8-.48 2.94-.63.23-.72 9.76-.1 10.4.3.3 9.4.4 38.9.4 21.16.02 38.3.1 38.08.2-.22.08-.4.5-.4.94 0 .48-.2.78-.5.78-.25 0-.47.22-.47.48 0 .27-.22.5-.5.5-.27 0-.48.3-.5.72 0 .4-.43 1.08-.96 1.52-.55.46-.95 1.1-.95 1.53 0 .4-.15.75-.33.75-.18 0-.33.22-.33.48 0 .27-.22.5-.48.5-.32 0-.5.3-.5.8s-.18.8-.5.8c-.25 0-.47.22-.47.5 0 .26-.22.47-.5.47-.3 0-.47.33-.47.97 0 .65-.16.97-.5.97-.25 0-.47.22-.47.46 0 .25-.23.54-.5.64-.26.1-.48.48-.48.84 0 .37-.14.66-.32.66s-.33.22-.33.5c0 .25-.22.47-.48.47-.28 0-.5.2-.5.45s-.2.54-.48.64c-.27.1-.5.55-.5 1 0 .52-.17.82-.47.82-.27 0-.5.2-.5.45s-.2.54-.47.64c-.27.1-.5.4-.5.7 0 .28-.33.83-.75 1.22-.82.74-.85.82-.85 1.83 0 .36-.22.65-.5.65-.26 0-.47.22-.47.48 0 .27-.2.5-.48.5-.3 0-.48.3-.48.8s-.2.8-.5.8c-.26 0-.47.22-.47.5 0 .26-.22.48-.5.48-.3 0-.47.32-.47.96 0 .65-.17.97-.5.97-.26 0-.47.22-.47.5 0 .26-.15.48-.33.48-.18 0-.32.2-.32.48 0 .27-.22.5-.5.5-.25 0-.47.27-.47.63 0 .68-1.05 1.94-1.6 1.94-.2 0-.33.44-.33.97 0 .54-.16.97-.35.97-.54 0-1.22.8-1.45 1.74-.12.47-.34.85-.5.85-.16 0-.3.22-.3.48 0 .28-.2.5-.47.5-.33 0-.5.32-.5.97 0 .53-.13.97-.3.97-.58 0-1.63 1.1-1.63 1.7 0 .32-.22.67-.48.77-.28.1-.5.35-.5.53 0 .18-.36.67-.8 1.08-.45.42-.8 1.06-.8 1.42 0 .38-.23.66-.5.66-.28 0-.5.3-.5.7 0 .46-.13.6-.47.48-.36-.14-.5.05-.5.77 0 .64-.15.96-.47.96-.27 0-.5.2-.5.48 0 .27-.2.48-.47.48-.3 0-.5.3-.5.8 0 .46-.13.82-.3.82-.16 0-.4.3-.5.65-.12.36-.35.57-.5.47-.18-.1-.3.26-.3.8 0 .67-.17 1-.5 1-.26 0-.48.2-.48.48 0 .26-.22.48-.5.48-.25 0-.47.2-.47.45 0 .26-.22.55-.5.65-.25.1-.47.48-.47.84s-.22.65-.5.65c-.25 0-.47.22-.47.48 0 .27-.14.5-.32.5-.17 0-.32.36-.32.8 0 .46-.22.9-.5 1-.25.1-.47.4-.47.65s-.23.45-.5.45c-.3 0-.48.3-.48.8s-.18.8-.5.8c-.25.02-.47.23-.47.5s-.22.48-.5.48c-.3.02-.47.34-.47 1 0 .63-.16.96-.5.96-.25 0-.47.2-.47.48 0 .27-.14.5-.3.5-.2 0-.34.35-.34.8 0 .5-.18.8-.48.8-.27 0-.5.22-.5.5 0 .25-.2.47-.47.47-.26 0-.48.2-.48.46 0 .24-.22.63-.48.85-.27.23-.5.68-.5 1.02 0 .33-.2.6-.47.6-.27 0-.5.22-.5.5 0 .25-.13.47-.3.47-.18 0-.4.36-.52.8-.12.45-.34.8-.5.8-.15 0-.28.23-.28.5 0 .26-.22.48-.5.48-.3 0-.47.32-.47.97 0 .53-.15.97-.32.97-1.23 0-2.07 2.35-1.43 4.02.25.64 1.38.66 1.63.02.1-.27.52-.48.94-.48.4 0 .97-.22 1.23-.5.27-.26 1-.47 1.65-.47.74 0 1.23-.17 1.35-.48.13-.33.65-.48 1.6-.48 1.06 0 1.43-.13 1.43-.5 0-.35.38-.47 1.46-.47.8 0 1.45-.13 1.45-.28 0-.17.7-.4 1.6-.5.88-.13 1.7-.36 1.8-.54.1-.17.73-.3 1.4-.3.67 0 1.5-.22 1.84-.48.36-.28 1.34-.48 2.3-.5 1.16 0 1.7-.14 1.84-.5.14-.35.73-.47 2.44-.47 1.54 0 2.4-.14 2.72-.47.35-.35 1.37-.48 3.93-.52 2.62-.02 3.5-.14 3.62-.48.12-.33.86-.45 2.88-.45 2.94 0 3.22.2 1.9 1.43-.46.43-.8 1.1-.8 1.6 0 .54-.18.85-.5.85-.26 0-.47.14-.47.32 0 .42-1.2 1.62-1.6 1.62-.2 0-.33.35-.33.8 0 .5-.2.8-.5.8-.26 0-.47.16-.47.35 0 .18-.37.67-.8 1.08-.46.42-.82 1.06-.82 1.44 0 .4-.2.7-.5.7-.25 0-.47.2-.47.48 0 .27-.2.48-.48.48-.26 0-.48.22-.48.5 0 .26-.22.47-.5.47-.25 0-.47.22-.47.5 0 .26-.13.47-.3.47-.16 0-.4.44-.5.97-.13.54-.37.97-.54.97-.43 0-1.25.85-1.25 1.3 0 .17-.22.33-.48.33-.33 0-.5.33-.5.97 0 .65-.15.97-.47.97-.27 0-.5.22-.5.5 0 .25-.2.47-.47.47-.27 0-.5.22-.5.5 0 .25-.17.47-.4.47-.22.02-.68.6-1 1.3-.36.72-.75 1.3-.9 1.3-.15 0-.27.22-.27.48 0 .27-.23.5-.5.5s-.5.2-.5.47c0 .27-.2.5-.47.5-.3 0-.5.3-.5.8s-.17.8-.47.8c-.27 0-.5.22-.5.5 0 .26-.2.48-.47.48-.28 0-.5.2-.5.48 0 .28-.13.5-.3.5-.16 0-.4.43-.5.97-.12.53-.35.97-.5.97-.18 0-.3.2-.3.48 0 .27-.23.5-.5.5-.26 0-.48.13-.48.3 0 .2-.22.33-.5.33-.25 0-.47.2-.47.45s-.22.54-.5.64c-.25.1-.47.55-.47 1 0 .53-.18.82-.5.82-.28 0-.42.15-.3.33.1.17-.04.4-.3.5-.3.12-.52.4-.52.65s-.22.45-.5.45c-.3 0-.47.3-.47.8s-.2.82-.5.82c-.26 0-.48.22-.48.5 0 .25-.22.47-.5.47-.25 0-.47.2-.47.48 0 .26-.22.48-.5.48-.3 0-.47.32-.47.97 0 .53-.16.97-.35.97-.5 0-1.27.85-1.27 1.42 0 .3-.18.43-.48.3-.37-.13-.5.07-.5.83 0 .68-.15 1-.47 1-.26 0-.48.23-.48.5 0 .26-.22.48-.48.48-.27 0-.5.2-.5.45s-.2.53-.47.63c-.27.12-.5.48-.5.82 0 .34-.2.7-.47.8-.27.1-.5.53-.5.94 0 .6-.06.64-.3.25-.25-.36-.32-.22-.33.57 0 .72-.16 1.05-.5 1.05-.3 0-.47.3-.47.8 0 .52-.2.82-.5.82s-.47.32-.47.97c0 .66-.17.98-.5.98-.3 0-.47.32-.47.97 0 .65-.17.97-.5.97-.3 0-.47.32-.47.93 0 .5-.23 1.1-.5 1.33-.3.25-.48.96-.48 1.82 0 .78-.15 1.42-.33 1.42-.2 0-.33.8-.33 1.78 0 1.36-.1 1.78-.5 1.78s-.47 1.02-.47 7.27.07 7.28.48 7.28c.37 0 .5.4.5 1.7 0 .95.16 1.9.36 2.1.2.2.36.82.35 1.37-.03.6.15 1.08.42 1.2.26.08.47.6.47 1.1 0 .62.15.94.47.94.27 0 .5.28.5.63 0 .9 1.04 2.9 1.52 2.9.22.02.4.44.4 1 0 .64.16.96.48.96.3 0 .5.3.5.8 0 .45.13.82.3.82.2 0 .33.22.33.48 0 .27.23.5.5.5.32 0 .48.3.48.96 0 .64.16.96.5.96.25 0 .47.22.47.48 0 .27.22.5.5.5.25 0 .47.2.47.47 0 .28.2.46.4.42.23-.05.46.3.5.8.07.52.3.9.58.9.26 0 .46.16.46.36 0 .2.37.7.8 1.12.46.4.82.9.82 1.1 0 .17.15.33.34.33.2 0 .68.36 1.1.8.4.45 1 .8 1.35.8.63 0 1.74 1.05 1.74 1.63 0 .18.22.32.5.32.26 0 .48.23.48.5 0 .28.18.48.4.45.98-.13 1.54.06 1.54.5 0 .28.2.5.45.5s.53.2.63.48c.1.28.5.5.85.5.36 0 .65.14.65.32s.43.32.94.32c.53 0 1 .2 1.12.48.1.27.5.5.87.5s.9.2 1.16.47c.26.26.9.48 1.4.48.5 0 .98.2 1.1.5.1.28.37.48.6.45 1.5-.2 3.15.06 3.15.5 0 .4.52.5 2.72.5 2.04 0 2.75.1 2.9.45.24.66 10.74.66 12 0 .53-.28 1.86-.46 3.3-.46 1.82 0 2.43-.1 2.57-.5.12-.3.62-.47 1.4-.47.8 0 1.3-.17 1.42-.5.12-.3.63-.47 1.5-.47.93 0 1.3-.13 1.3-.5 0-.34.35-.47 1.3-.47.92 0 1.28-.13 1.28-.47 0-.33.33-.5.97-.5.55 0 .98-.13.98-.3 0-.2.28-.34.63-.34s.85-.22 1.1-.5c.28-.26.65-.48.85-.48.2 0 .34-.22.34-.48 0-.3.3-.5.8-.5s.8-.17.8-.47c0-.27.23-.5.5-.5.26 0 .48-.2.48-.47 0-.42.8-.67 1.7-.52.13.02.24-.2.24-.45 0-.27.15-.5.35-.5.36 0 1.27-.78 1.27-1.1 0-.3 1.27-1.47 1.6-1.47.2 0 .34-.15.34-.33 0-.42 1.2-1.6 1.6-1.6.2 0 .34-.23.34-.5s.15-.48.34-.48c.62 0 1.27-.9 1.27-1.76 0-.53.18-.84.5-.84.25 0 .47-.22.47-.5 0-.25.22-.47.5-.47.25 0 .47-.23.47-.5 0-.26.22-.48.5-.48s.47-.3.47-.78c0-.42.22-.85.5-.95.25-.12.47-.55.47-1 0-.42.23-.85.5-.96.26-.1.48-.55.48-1 0-.45.15-.82.33-.82.2 0 .33-.36.33-.8 0-.5.18-.8.5-.8.35-.02.47-.4.47-1.47 0-1.08.13-1.46.5-1.46.33 0 .47-.36.47-1.26 0-.82.17-1.33.5-1.45.34-.15.47-.7.47-2.12 0-1.3.16-2.1.5-2.42.7-.72.68-14.37-.04-14.65-.32-.1-.46-.7-.46-1.88 0-1.1-.18-1.9-.5-2.2-.26-.28-.47-1.07-.47-1.8 0-.9-.13-1.3-.4-1.25-.25.05-.45-.34-.5-.97-.07-.65-.3-1.05-.57-1.05-.3 0-.47-.32-.47-.83 0-.46-.2-1.04-.47-1.3-.26-.26-.4-.7-.3-.95.12-.3 0-.47-.33-.47-.36 0-.52-.3-.52-.98 0-.64-.15-.97-.47-.97-.27 0-.5-.2-.5-.44s-.2-.62-.47-.84c-.27-.22-.5-.68-.5-1 0-.34-.2-.62-.47-.62-.28 0-.5-.14-.5-.32s-.22-.32-.48-.32c-.3 0-.5-.3-.5-.85 0-.5-.33-1.17-.8-1.6-.44-.42-.8-.9-.8-1.1 0-.18-.22-.33-.5-.33-.26 0-.47-.22-.47-.5 0-.25-.22-.47-.5-.47-.26 0-.47-.15-.47-.33 0-.17-.22-.32-.5-.32-.26 0-.47-.22-.47-.48 0-.27-.18-.5-.4-.5-.22 0-.76-.45-1.2-.97-.43-.53-1.05-.96-1.37-.96-.32 0-.58-.23-.58-.5 0-.26-.22-.48-.5-.48-.25 0-.47-.22-.47-.48 0-.3-.3-.5-.83-.5-.85 0-1.76-.64-1.76-1.26 0-.2-.44-.35-.98-.35-.65 0-.97-.16-.97-.48 0-.33-.32-.5-.97-.5-.64 0-.97-.15-.97-.47 0-.3-.3-.5-.76-.5-.43 0-.86-.2-.96-.47-.1-.26-.54-.48-.98-.48-.44 0-.84-.15-.9-.34-.07-.2-.74-.43-1.5-.53-.74-.1-1.36-.3-1.36-.46 0-.17-.85-.3-1.9-.3-1.3 0-2.02-.15-2.3-.48-.3-.37-1.15-.48-3.6-.48-2.62 0-3.2-.1-3.2-.5 0-.36-.4-.47-1.77-.47-1.36 0-1.78-.12-1.78-.5 0-.26.2-.47.48-.47.27 0 .48-.22.48-.5 0-.26.22-.47.5-.47.25 0 .47-.22.47-.5 0-.26.22-.47.5-.47.25 0 .47-.22.47-.5 0-.26.13-.47.3-.47.15-.02.37-.38.48-.82.1-.45.35-.8.52-.8.18 0 .32-.23.32-.5 0-.26.22-.48.5-.48.25 0 .47-.22.47-.5 0-.25.2-.47.47-.47.3 0 .5-.3.5-.7 0-.4.55-1.2 1.32-1.92.8-.75 1.33-1.53 1.36-2.04.03-.46.23-.83.45-.83.24 0 .42-.22.42-.48 0-.27.22-.5.48-.5.27 0 .5-.2.5-.44s.2-.52.47-.63c.27-.1.5-.48.5-.84 0-.37.2-.66.47-.66.27 0 .5-.2.5-.48 0-.28.2-.5.47-.5.28 0 .5-.16.5-.36 0-.2.36-.7.8-1.12.45-.4.8-1.05.8-1.4 0-.38.23-.67.5-.67s.5-.22.5-.5c0-.26.2-.47.47-.47.27 0 .5-.2.5-.45s.2-.54.47-.64c.27-.1.5-.56.5-1.02 0-.5.17-.8.47-.8.28 0 .5-.17.5-.36 0-.45.82-1.27 1.26-1.27.2 0 .35-.44.35-.97 0-.65.17-.97.5-.97.26 0 .48-.2.48-.48 0-.26.22-.48.5-.48.25 0 .47-.22.47-.48 0-.27.23-.5.5-.5.28 0 .42-.13.32-.3-.1-.17.1-.6.46-.97.37-.37.66-.82.66-1 0-.17.14-.32.3-.32.2 0 .34-.22.34-.48 0-.27.22-.5.48-.5.27 0 .5-.2.5-.47 0-.27.2-.5.47-.5.26 0 .48-.28.48-.63 0-.7 1.06-1.94 1.64-1.94.18 0 .25-.14.15-.3-.1-.18.1-.48.46-.67.4-.22.66-.7.66-1.16 0-.44.13-.8.3-.8.2 0 .34-.2.34-.48 0-.27.2-.48.48-.48.27 0 .5-.22.5-.5 0-.26.2-.47.47-.47.3 0 .48-.3.48-.8s.18-.8.48-.8c.27 0 .5-.23.5-.5 0-.26.2-.48.47-.48.27 0 .5-.22.5-.5 0-.25.22-.47.5-.47.33 0 .46-.18.34-.5-.1-.28 0-.47.3-.47.28 0 .46-.3.46-.8s.2-.82.5-.82c.25 0 .47-.22.47-.48 0-.27.22-.5.5-.5.25 0 .47-.2.47-.47 0-.26.22-.48.5-.48.3 0 .47-.32.47-.97 0-.53.15-.97.33-.97.43 0 1.6-1.2 1.6-1.64 0-.18.16-.25.34-.14.2.12.33-.2.33-.8 0-.65.16-.98.5-.98.25 0 .47-.2.47-.48 0-.27.22-.5.5-.5.25 0 .47-.2.47-.47 0-.27.22-.5.5-.5.3 0 .47-.3.47-.8s.18-.8.5-.8c.25 0 .47-.22.47-.5 0-.25.24-.47.52-.47s.46-.18.4-.4c-.15-.4.84-1.54 1.35-1.54.18 0 .33-.3.33-.65 0-.66 1.05-1.93 1.6-1.93.2 0 .34-.2.34-.45s.22-.54.5-.64c.36-.14.48-.54.4-1.4l-.1-1.23-9.25-.1c-8.02-.08-9.34-.02-9.77.4-.28.28-1.02.5-1.66.5-.8 0-1.15.15-1.15.5 0 .26-.22.48-.5.48-.25 0-.47.22-.47.48 0 .32-.3.5-.8.5-.65 0-.94.28-1.38 1.3-.3.7-.74 1.3-.97 1.3-.22 0-.4.2-.4.47 0 .27-.23.5-.5.5-.26 0-.48.2-.48.44 0 .25-.22.54-.48.64-.27.1-.5.56-.5 1 0 .52-.17.83-.47.83-.27 0-.5.22-.5.48 0 .27-.2.5-.47.5-.27 0-.5.2-.5.47 0 .27-.13.5-.3.5-.2 0-.33.35-.33.8 0 .5-.2.8-.5.8-.26 0-.48.2-.48.45s-.22.54-.5.64c-.26.1-.47.56-.47 1.02 0 .5-.2.8-.5.8-.26 0-.48.23-.48.5s-.14.48-.3.48c-.2 0-.42.37-.53.8-.1.46-.4.82-.66.82-.24 0-.45.22-.45.5 0 .3-.3.47-.8.47s-.8.17-.8.48c0 .3-.3.48-.78.48-.42 0-.85.22-.96.5-.26.7-15.72.72-15.72.02 0-.25.22-.54.5-.64.27-.1.47-.38.44-.6-.1-.86.04-1.22.5-1.22.28 0 .5-.22.5-.48 0-.27.14-.5.32-.5s.32-.28.32-.64c0-.67 1.06-1.94 1.62-1.94.18 0 .32-.43.32-.97 0-.65.17-.98.5-.98.25 0 .47-.2.47-.48 0-.27.22-.5.5-.5.26 0 .47-.27.47-.65 0-.37.37-1 .8-1.42.46-.4.82-.9.82-1.08 0-.18.22-.42.5-.52.25-.1.47-.55.47-1 0-.52.17-.82.47-.82.27 0 .5-.22.5-.5 0-.26.2-.47.48-.47.27 0 .48-.3.48-.68 0-.36.35-1 .8-1.4.42-.4.87-1.1 1-1.6.1-.47.34-.86.5-.86.16 0 .3-.22.3-.5 0-.25.2-.47.47-.47.3 0 .5-.32.5-.82 0-.5.17-.8.47-.8.27 0 .5-.2.5-.46 0-.25.2-.53.47-.63.27-.12.5-.57.5-1.02 0-.52.17-.82.5-.82.27 0 .4-.14.3-.32-.12-.18 0-.4.27-.5.27-.1.57-.55.68-.98.1-.43.34-.8.52-.8.17.02.3-.2.3-.47 0-.28.23-.5.5-.5.32 0 .5-.32.5-.97 0-.64.15-.96.47-.96.27 0 .5-.22.5-.5 0-.26.2-.48.47-.48.3 0 .5-.3.5-.8 0-.52.17-.82.47-.82.28 0 .5-.22.5-.5 0-.25.13-.47.3-.47.16 0 .4-.43.5-.96.12-.54.35-.97.5-.97.18 0 .3-.22.3-.5 0-.25.23-.47.5-.47.3 0 .48-.3.48-.8s.2-.82.5-.82c.25 0 .47-.22.47-.48 0-.27.22-.5.5-.5.25 0 .45-.1.43-.23-.14-.9.1-1.7.53-1.7.27 0 .5-.22.5-.48 0-.28.14-.5.3-.5.2 0 .34-.36.34-.8 0-.5.18-.82.48-.82.27 0 .5-.2.5-.48 0-.27.2-.5.47-.5.26 0 .48-.14.48-.33 0-.2.22-.57.48-.83.27-.27.5-.77.5-1.1 0-.36.2-.64.47-.64.27 0 .5-.2.5-.48 0-.27.13-.5.3-.5.18 0 .42-.35.53-.8.1-.44.33-.8.5-.8.15 0 .28-.22.28-.5 0-.25.2-.47.48-.47.32 0 .5-.33.5-.97 0-.65.15-.97.47-.97.26 0 .48-.2.48-.48 0-.27.22-.48.5-.48.27 0 .47-.2.44-.4-.1-.86.04-1.22.5-1.22.28 0 .5-.2.5-.45s.2-.54.48-.64c.27-.1.5-.5.5-.88 0-.4.35-1.04.8-1.45.44-.42.8-1.05.8-1.42 0-.37.2-.66.5-.66.25 0 .47-.22.47-.48 0-.27.22-.5.5-.5.3 0 .47-.3.47-.96 0-.53.16-.97.36-.97.5 0 1.56-1.34 1.57-2 0-.32.16-.57.34-.57.2 0 .33-.22.33-.5 0-.26.22-.48.5-.48.3 0 .47-.32.47-.96 0-.55.17-.98.38-.98.8 0 2.47-2.34 2.4-3.37l-.08-1-53.9-.08-53.9-.08v2.75m69.1 134.85c25.17 5.77 32.8 35.7 13.04 51.12-21.5 16.78-53.46.1-49.97-26.08 1.68-12.6 10.6-21.85 24.26-25.17 2.17-.52 10.2-.44 12.68.13M27.18 289.98c0 13.58.12 22.1.32 22.4.2.3.3-7.34.3-21.92 0-14.72-.1-22.4-.3-22.4-.23 0-.34 7.52-.33 21.92m122.55-19.78c0 .34-.47.45-1.78.45-1.37 0-1.78.12-1.78.5 0 .3-.32.48-.97.48-.66 0-.98.16-.98.48 0 .33-.32.5-.97.5-.65 0-.97.16-.97.48 0 .27-.22.5-.5.5-.25 0-.47.12-.47.3 0 .15-.32.4-.72.52-.4.12-1.05.57-1.44 1-.4.4-.86.75-1.05.75-.2 0-.35.2-.35.45 0 .24-.22.62-.48.84-.27.23-.5.68-.5 1 0 .35-.2.62-.47.62-.27 0-.5.22-.5.5 0 .25-.13.47-.3.47-.2 0-.33.37-.33.8 0 .5-.2.82-.47.82-.33 0-.5.46-.57 1.54-.06 1-.23 1.5-.5 1.44-.66-.13-.57 10.55.08 10.8.33.12.5.62.5 1.44 0 .9.13 1.26.48 1.26.3 0 .5.3.5.85 0 .5.33 1.16.8 1.6.44.4.8 1.04.8 1.4 0 .38.2.67.5.67.25 0 .47.22.47.48 0 .27.22.5.5.5.25 0 .47.2.47.47 0 .27.22.5.5.5.25 0 .47.2.47.47 0 .27.28.48.66.48.36 0 1 .36 1.4.8.44.48 1.1.8 1.6.8.55 0 .86.2.86.5 0 .32.32.5.97.5.64 0 .96.15.96.47 0 .35.36.5 1.26.5.82 0 1.32.15 1.44.47.16.4 1.03.5 5.05.5 4.12 0 4.87-.1 4.87-.5 0-.37.4-.5 1.63-.5 1.15 0 1.68-.13 1.8-.47.12-.28.6-.48 1.13-.48.54 0 .94-.18.94-.4 0-.38.75-.8 2.34-1.34.32-.1.58-.42.58-.7 0-.28.14-.42.32-.3.2.1.32-.18.32-.67 0-.86-2.46-3.7-3.2-3.7-.2 0-.35-.23-.35-.5 0-.26-.22-.48-.5-.48-.3 0-.47-.32-.47-.97 0-.9-.07-.96-1.3-.96-.88 0-1.3.14-1.3.45 0 .24-.35.53-.8.64-.44.12-.8.35-.8.52 0 .18-.66.32-1.46.32-1.08 0-1.46.13-1.46.5 0 .35-.4.47-1.6.47-1.3 0-1.57-.1-1.42-.48.15-.4-.15-.5-1.63-.5-1.4 0-1.8-.1-1.8-.47 0-.33-.34-.5-.98-.5-.65 0-.97-.15-.97-.47 0-.27-.22-.5-.5-.5-.25 0-.47-.2-.47-.47 0-.27-.2-.5-.48-.5-.26 0-.48-.2-.48-.47 0-.28-.15-.5-.33-.5-.16 0-.3-.36-.3-.8 0-.5-.2-.82-.5-.82-.35 0-.48-.36-.48-1.3 0-.86-.16-1.37-.48-1.5-.35-.12-.5-.67-.5-1.92 0-1.33.12-1.74.5-1.74.35 0 .48-.38.48-1.46s.13-1.45.5-1.45c.25 0 .47-.2.47-.48 0-.27.14-.48.3-.48.2 0 .34-.37.34-.8 0-.5.18-.82.48-.82.27 0 .5-.22.5-.5 0-.3.3-.47.96-.47.64 0 .97-.16.97-.5 0-.3.3-.47.82-.47.45 0 .9-.22 1-.5.15-.38.93-.47 4.2-.47 3.34 0 4 .1 4 .5 0 .26.23.48.5.48.3 0 .74.22 1 .48.27.27.77.5 1.12.5.34 0 .7-.23.8-.5.1-.26.4-.48.65-.48.26 0 .45-.33.45-.8 0-.5.18-.82.48-.82.27 0 .5-.22.5-.48 0-.27.2-.5.47-.5.27 0 .5-.2.5-.47 0-.26.2-.48.47-.48.27 0 .5-.22.5-.48 0-.27.2-.5.47-.5.34 0 .48-.35.48-1.28 0-1.22-.06-1.3-.97-1.3-.64 0-.96-.16-.96-.48 0-.27-.2-.48-.45-.48s-.63-.22-.86-.5c-.22-.26-.8-.48-1.3-.48s-.97-.2-1.07-.48c-.12-.3-.62-.5-1.36-.5-.63 0-1.37-.2-1.64-.48-.7-.7-8.84-.66-8.84.04m96.14 0c-.1.27-.63.45-1.28.45-.7 0-1.18.2-1.3.5-.1.26-.38.48-.63.48s-.45.2-.45.48c0 .3-.3.5-.68.5-.82 0-2.22 1.24-2.23 1.98 0 .3-.23.62-.5.72-.26.1-.48.42-.48.7 0 .28-.15.42-.32.3-.2-.1-.33.4-.33 1.3 0 1.08-.12 1.46-.48 1.46-.4 0-.5.42-.5 1.78v1.78h8.09v-.97c0-.65.15-.97.47-.97.3 0 .5-.3.5-.73 0-1.72 4.57-2.53 5.94-1.05.42.45.92.8 1.13.8.2 0 .36.45.36.98 0 .65.16.97.48.97.26 0 .48.22.48.48 0 .27-.22.5-.48.5-.33 0-.5.3-.5.96 0 .6-.15.96-.44.96-.26 0-.5.1-.57.24-.35.8-2.42 1.38-4.82 1.38h-2.56v7.43h2.7c2.1 0 2.75.12 2.9.5.1.26.55.48 1 .48.52 0 .82.2.82.5 0 .25.22.47.5.47s.47.3.47.77c0 .43.22.96.5 1.2.46.37.46.44 0 .7-.33.17-.5.73-.5 1.55 0 1.12-.1 1.28-.75 1.28-.4 0-.88.14-1.05.3-.48.47-4.45.54-4.6.08-.07-.2-.33-.38-.6-.38-.28 0-.44-.35-.44-.97 0-.65-.17-.97-.5-.97-.3 0-.47-.3-.47-.96v-.97h-8.1v1.8c0 1.28.14 1.83.5 1.96.3.13.47.63.47 1.45 0 .7.13 1.26.3 1.26.15 0 .37.36.48.8.1.45.35.8.52.8.18 0 .32.2.32.43 0 .64 1.2 1.52 2.1 1.52.5 0 .8.18.8.48 0 .27.2.5.45.5s.53.2.64.47c.1.27.45.5.8.5.33 0 .8.2 1 .47.33.38 1.23.5 4.2.5 3 0 3.9-.12 4.22-.5.22-.27.82-.5 1.33-.5.6 0 .93-.15.93-.47 0-.27.22-.48.48-.48.27 0 .5-.22.5-.5 0-.26.28-.48.64-.48.35 0 .94-.3 1.3-.65.35-.36.64-.94.64-1.3 0-.36.2-.64.48-.64.27 0 .5-.2.5-.48 0-.26.2-.48.47-.48.35 0 .48-.38.48-1.46 0-1.07.12-1.45.48-1.45.4 0 .5-.5.5-2.6 0-2.07-.1-2.58-.5-2.58-.36 0-.48-.37-.48-1.45s-.13-1.46-.5-1.46c-.43 0-.62-.38-.5-1.06.02-.13-.2-.33-.45-.44-.66-.25-.66-2.05 0-2.05.32 0 .48-.34.48-.98 0-.65.17-.97.5-.97.34 0 .48-.36.48-1.3 0-.78.17-1.38.42-1.47.65-.25.7-4.46.07-5.1-.27-.27-.5-.87-.5-1.33 0-.52-.17-.83-.48-.83-.33 0-.5-.32-.5-.97 0-.64-.15-.97-.48-.97-.26 0-.48-.2-.48-.43 0-.24-.37-.62-.8-.86-.46-.25-.82-.64-.82-.88 0-.23-.22-.42-.5-.42-.25 0-.47-.22-.47-.5 0-.3-.32-.48-.94-.48-.52 0-1-.2-1.1-.48-.1-.27-.5-.5-.86-.5-.37 0-.75-.2-.86-.48-.26-.7-6.85-.65-7.12.04m-30 .1c-.14.23-2.05.35-5.2.35-4.23 0-5 .08-5 .5 0 .26-.22.48-.5.48-.25 0-.47.2-.47.48 0 .28-.23.5-.5.5-.26 0-.48.2-.48.48 0 .27-.15.5-.34.5-.48 0-2.57 2.07-2.57 2.54 0 .22-.14.3-.3.2-.2-.12-.34.02-.34.3 0 .27-.22.5-.48.5-.27 0-.5.22-.5.5 0 .25-.2.47-.47.47-.26 0-.48.2-.48.48 0 .26-.22.48-.48.48-.27 0-.5.16-.5.35 0 .2-.2.57-.47.84-.44.43-.5-.07-.5-4.55v-5.05h-4.5c-2.47 0-4.68.08-4.92.17-.35.13-.42 3.6-.37 19.16l.06 19 4.87.08 4.88.1v-7.3c0-6.25.07-7.28.5-7.28.25 0 .47-.2.47-.48 0-.33.32-.5.97-.5.86 0 .97.12.97.98 0 .65.15.97.48.97.3 0 .48.3.48.8 0 .46.15.82.33.82.16 0 .3.28.3.62 0 .34.23.84.5 1.1.26.27.48.64.48.83 0 .2.22.35.48.35.3 0 .5.3.5.8s.17.82.47.82c.33 0 .5.32.5 1 0 .76.1.96.47.82.3-.12.5 0 .5.3s.2.73.47 1c.27.26.5.76.5 1.1 0 .35.13.63.3.63.2 0 .34.37.34.83 0 .5.14.74.35.6.2-.1.42.1.52.46.16.62 8.97 1.23 10.7.74.6-.17.53-2.63-.1-2.63-.25 0-.47-.22-.47-.5 0-.25-.22-.47-.5-.47-.3 0-.47-.32-.47-.97 0-.53-.13-.96-.3-.96-.15 0-.37-.37-.48-.8-.1-.45-.34-.82-.52-.82-.17 0-.32-.22-.32-.48 0-.27-.2-.5-.47-.5-.32 0-.5-.3-.5-.96 0-.65-.15-.97-.47-.97-.27 0-.5-.2-.5-.47 0-.27-.2-.5-.45-.5-.26 0-.5-.37-.56-.88-.05-.5-.28-.85-.5-.8-.25.04-.4-.3-.4-.86s-.22-1.03-.5-1.14c-.3-.1-.43-.34-.32-.52.1-.18-.02-.33-.3-.33-.3 0-.5-.27-.5-.73 0-.43-.4-1.08-.96-1.54-.53-.43-.96-1.12-.97-1.52-.02-.4-.23-.7-.5-.7-.33 0-.5-.34-.5-.98 0-.65-.16-.97-.48-.97-.32 0-.48-.33-.48-.97 0-.65.16-.97.48-.97.27 0 .5-.2.5-.48 0-.27.17-.48.4-.48.38 0 .92-.78 1.4-2.03.1-.3.4-.55.65-.55.24 0 .45-.22.45-.5 0-.25.2-.47.48-.47.27 0 .5-.14.5-.32 0-.5 1.04-1.6 1.34-1.42.14.1.26-.07.26-.34 0-.28.22-.5.5-.5.25 0 .47-.23.47-.5 0-.26.22-.48.5-.48.25 0 .47-.22.47-.48 0-.27.22-.5.5-.5.25 0 .47-.2.47-.47 0-.27.23-.5.5-.5s.48-.14.48-.34.2-.55.47-.8c.25-.26.6-.46.8-.46.2 0 .35-.22.35-.47 0-.26.23-.6.5-.76.98-.54.47-2.15-.7-2.27-.57-.05-1.13.06-1.24.24m71.45.03c-.1.2-1.92.32-4.33.32-4.1 0-5.2.3-5.2 1.43 0 .13-.22.46-.5.72-.25.27-.47.77-.47 1.1 0 .36-.14.64-.32.64-.17 0-.4.36-.52.8-.1.45-.33.8-.5.8-.15 0-.28.45-.28.98 0 .65-.16.97-.48.97-.28 0-.5.28-.5.66 0 .37-.2.9-.47 1.16-.27.26-.5.76-.5 1.1 0 .35-.2.63-.47.63-.33 0-.5.32-.5.97 0 .65-.15.97-.47.97-.28 0-.5.14-.5.32s-.36.9-.8 1.6c-.45.7-.8 1.57-.8 1.9 0 .35-.23.7-.5.8-.27.12-.5.57-.5 1.02 0 .5-.17.82-.47.82-.3 0-.5.3-.5.8s-.17.8-.47.8c-.32 0-.5.33-.5.95 0 .54-.2 1.02-.47 1.13-.4.15-.5.9-.5 3.93 0 3.02.1 3.77.5 3.92.27.1.47.6.47 1.12 0 .62.17.94.5.94.26 0 .48.22.48.48 0 .27.2.5.48.5.3 0 .48.3.48.76 0 .56.24.83.82.98.45.1.8.34.8.52 0 .17.23.3.5.3.26 0 .48.23.48.5s.28.5.6.5c.35 0 .7.2.8.47.13.3.62.5 1.34.5.8 0 1.14.13 1.14.47 0 .4.68.5 4.17.5 3.3 0 4.24-.12 4.56-.5.23-.27.77-.5 1.2-.5.42 0 .86-.2.96-.47.1-.27.53-.48.96-.48.47 0 .77-.2.77-.5 0-.26.16-.48.36-.48.2 0 .7-.37 1.12-.8.4-.46.9-.82 1.1-.82.17 0 .32-.16.32-.35 0-.2.22-.56.5-.83.25-.27.47-.76.47-1.1 0-.32.15-.68.33-.8.18-.1.32-.68.32-1.27 0-.66.2-1.15.5-1.27.35-.13.47-.7.47-2.3 0-1.66-.1-2.1-.5-2.1-.35 0-.48-.38-.48-1.43 0-.8-.15-1.48-.34-1.55-.2-.06-.38-.33-.42-.6-.13-.76-.98-1.92-1.42-1.92-.22 0-.4-.22-.4-.5 0-.25-.23-.47-.5-.47-.26 0-.48-.23-.48-.5s-.2-.48-.48-.48c-.27 0-.5-.15-.5-.32 0-.18-.34-.4-.77-.5-.42-.12-.86-.42-.95-.67-.1-.25-.43-.45-.73-.45-1.82 0-3.48-1.5-2.54-2.27.27-.2.5-.57.5-.8 0-.23.2-.5.47-.6.27-.1.5-.55.5-1 0-.5.17-.82.47-.82.28 0 .5-.3.5-.67 0-.36.2-.88.47-1.15.26-.26.48-.76.48-1.1 0-.35.14-.63.32-.63s.32-.43.32-.97c0-.64.17-.97.5-.97.3 0 .47-.3.47-.8s.18-.8.48-.8c.34 0 .48-.35.48-1.12 0-.6.18-1.16.38-1.23.22-.07.3-.37.18-.68-.23-.6-1.68-.75-2-.22m-189.02.78c0 .25-.22.54-.48.64-.27.1-.5.56-.5 1 0 .46-.13.82-.3.82-.2 0-.33.3-.33.66 0 .36-.23.74-.5.84-.27.1-.48.38-.48.6 0 .24-.22.5-.5.6-.26.1-.47.56-.47 1 0 .53-.2.83-.5.83s-.47.3-.47.8c0 .46-.22.9-.5 1.02-.26.1-.47.53-.47.95 0 .43-.13.78-.3.78-.16 0-.4.44-.5.97-.12.53-.35.97-.5.97-.18 0-.3.34-.3.76 0 .43-.23.86-.5.96-.26.1-.48.56-.48 1 0 .52-.18.83-.5.83-.25 0-.47.23-.47.5 0 .28-.22.73-.5 1-.25.26-.47.76-.47 1.1 0 .35-.18.6-.4.55-.22-.05-.44.25-.5.65-.07.4-.25.72-.42.72-.16 0-.3.44-.3.97 0 .65-.16.97-.48.97-.33 0-.5.34-.5.98 0 .65-.15.97-.47.97-.3 0-.48.3-.48.8s-.18.82-.48.82c-.33 0-.5.32-.5.97 0 .65-.15.97-.47.97-.33 0-.5.33-.5.98 0 .65-.15.97-.47.97-.27 0-.5.22-.5.5 0 .25-.13.47-.3.47-.2 0-.34.37-.34.8 0 .5-.18.82-.46.82-.3 0-.5.4-.57 1.05-.06.62-.26 1-.5.96-.25-.05-.4.28-.4.9 0 .63-.17.96-.5.96-.5 0-.63.84-.28 1.75.22.57 1.9.7 2.23.2.12-.2 1.94-.34 4.38-.34 3.36 0 4.2-.08 4.2-.44 0-.26.2-.55.47-.65.27-.1.5-.54.5-.97 0-.43.2-.87.47-.97.27-.1.5-.47.5-.84 0-.36.13-.65.3-.65.2 0 .33-.43.33-.96 0-.65.17-.97.5-.97.3 0 .48-.3.48-.8s.2-.82.5-.82.48-.32.48-.97c0-.65.16-.97.48-.97.32 0 .48-.3.48-.96 0-.65.17-.97.5-.97.26 0 .48-.28.48-.63s.36-1.02.8-1.5c.45-.48.8-1.22.8-1.64 0-.46.2-.76.5-.76.32 0 .48-.32.48-.97 0-.64.16-.97.5-.97.3 0 .47-.3.47-.8s.2-.8.5-.8c.25 0 .47.13.47.3 0 .2.22.33.5.33.44 0 .62.56.5 1.54-.03.22.17.4.44.4.34 0 .5.3.5.97 0 .54.15.97.33.97.18 0 .33.2.33.46 0 .24.22.63.48.85.28.23.5.76.5 1.2 0 .42.2.85.47.95.25.1.55.6.67 1.12.1.52.34.94.5.94.17 0 .3.38.3.83 0 .45.22.9.48 1 .27.1.5.54.5.96 0 .47.18.77.47.77.3 0 .48.3.48.8 0 .42.14.87.32.98.18.1.33.46.33.78 0 .33.22.77.48 1 .28.22.5.74.5 1.17 0 .46.2.77.48.77.27 0 .5.2.5.48 0 .4.67.5 4.17.5 2.44 0 4.27.12 4.4.3.3.53 2.1.4 2.1-.13 0-.26-.16-.56-.34-.67-.16-.1-.3-.63-.3-1.15 0-.63-.17-.95-.5-.95-.32 0-.48-.32-.48-.97 0-.54-.14-.97-.32-.97s-.33-.36-.33-.8c0-.46-.2-.9-.48-1-.28-.12-.5-.48-.5-.82 0-.35-.2-.7-.48-.8-.28-.12-.5-.6-.5-1.13 0-.62-.15-.94-.47-.94-.32 0-.5-.3-.5-.96 0-.6-.14-.94-.4-.9-.22.06-.44-.3-.5-.8-.05-.5-.3-.9-.56-.9-.3 0-.48-.33-.48-.93 0-.5-.14-.98-.3-1.04-.18-.06-.38-.46-.44-.9-.07-.44-.3-.85-.5-.92-.2-.06-.37-.47-.37-.9 0-.48-.18-.78-.48-.78-.33 0-.48-.34-.48-1.1 0-.6-.22-1.27-.5-1.5-.25-.2-.47-.67-.47-1 0-.35-.22-.7-.5-.8-.25-.12-.47-.55-.47-.98 0-.44-.22-.87-.5-.97-.25-.1-.47-.53-.47-.95 0-.43-.15-.78-.33-.78-.17 0-.32-.28-.32-.62 0-.34-.22-.84-.5-1.1-.25-.28-.47-.8-.47-1.18 0-.37-.2-.76-.48-.86-.26-.1-.48-.53-.48-.96 0-.43-.22-.87-.48-.97-.27-.1-.5-.53-.5-.96 0-.46-.18-.76-.48-.76-.45 0-.63-.57-.5-1.54.02-.22-.18-.4-.45-.4-.34 0-.5-.32-.5-.98v-.97h-2.26c-1.72 0-2.27.1-2.27.46m-65.56.47c-.32.2-.4 4.12-.33 18.5l.1 18.26 3.43.1c4.45.1 4.14.7 4.24-8.05l.1-7.25h13.9l.17 7.6.16 7.6h7.42l.1-18.07c.05-13.08-.03-18.2-.3-18.52-.48-.58-6.44-.62-7-.05-.28.27-.4 2.26-.4 6.92 0 4.07-.12 6.63-.32 6.75-.24.15-10.4.28-13.58.17-.2 0-.32-2.44-.32-6.62 0-8.02.2-7.62-4-7.6-1.62 0-3.14.1-3.36.25m248.66 21.28c3.62 1.87 4.15 6.4 1.07 9.12-1.93 1.7-3.84 1.75-5.9.2-4.78-3.66-.44-12.05 4.83-9.32"/><path fill="#77c47c" d="M244.96 112.76c-.13.35 0 .7.35.97.7.52.76.46.55-.63-.2-1.02-.57-1.16-.9-.34m37.18 37c-33.33 8.1-32.35 51.87 1.3 57.66 30.75 5.3 48.43-33.5 23.73-52.06-6.4-4.8-17.78-7.34-25.03-5.6M27.8 290.4v22.3h40.4l.02-22.3.02-22.3H27.82v22.3m11.77-18.57c.42.44.5 1.55.5 7.12 0 4.2.12 6.6.32 6.62 3.2.1 13.34-.02 13.58-.17.2-.13.33-2.68.33-6.75 0-4.66.1-6.65.38-6.93.58-.58 6.54-.54 7.02.04.27.32.35 5.44.3 18.5l-.1 18.1H54.5l-.17-7.6-.17-7.6H40.27l-.1 7.24c-.1 8.75.22 8.16-4.23 8.04l-3.43-.1-.1-18.24c-.05-14.4.02-18.3.34-18.5.8-.52 6.3-.32 6.85.23m146.8 18.1c0 9.24.05 12.98.1 8.3s.05-12.25 0-16.82c-.05-4.56-.1-.73-.1 8.5m90.7 3.18c-4.1 2.76-3.1 9.2 1.57 10.13 2.04.4 4.48-1.1 5.42-3.37 1.86-4.48-3.17-9.36-7-6.77"/></g></svg>