<svg id="svg" version="1.1" width="400" height="323.1121281464531" xmlns="http://www.w3.org/2000/svg" xmlns:xlink="http://www.w3.org/1999/xlink" style="display: block;"><g id="svgg"><path id="path0" d="" stroke="none" fill="#000000" fill-rule="evenodd"></path><path id="path1" d="M21.665 137.427 L 21.665 262.571 47.993 262.571 C 62.473 262.571,74.551 262.482,74.832 262.374 C 75.296 262.197,75.344 257.323,75.344 210.475 L 75.344 158.771 122.555 158.771 L 169.766 158.771 169.766 210.668 L 169.766 262.566 237.973 262.568 C 298.138 262.569,306.237 262.513,306.664 262.085 C 306.977 261.772,307.778 261.601,308.927 261.601 C 310.061 261.601,310.878 261.428,311.181 261.125 C 311.468 260.838,312.375 260.626,313.468 260.590 C 314.741 260.548,315.279 260.401,315.279 260.096 C 315.279 259.784,315.783 259.660,317.057 259.660 C 318.423 259.660,318.836 259.548,318.836 259.175 C 318.836 258.816,319.213 258.690,320.291 258.690 C 321.369 258.690,321.746 258.565,321.746 258.205 C 321.746 257.857,322.102 257.720,323.013 257.720 C 323.709 257.720,324.329 257.572,324.389 257.390 C 324.450 257.208,325.058 257.039,325.740 257.013 C 326.440 256.987,327.054 256.778,327.147 256.535 C 327.240 256.291,327.795 256.103,328.420 256.103 C 329.106 256.103,329.598 255.919,329.713 255.618 C 329.819 255.342,330.302 255.133,330.835 255.133 C 331.451 255.133,331.770 254.968,331.770 254.648 C 331.770 254.325,332.094 254.163,332.741 254.163 C 333.387 254.163,333.711 254.002,333.711 253.678 C 333.711 253.376,334.016 253.193,334.519 253.193 C 335.022 253.193,335.327 253.010,335.327 252.708 C 335.327 252.358,335.687 252.223,336.621 252.223 C 337.332 252.223,337.914 252.078,337.914 251.900 C 337.914 251.722,338.137 251.576,338.410 251.576 C 338.682 251.576,338.988 251.358,339.091 251.091 C 339.193 250.825,339.625 250.606,340.051 250.606 C 340.523 250.606,340.825 250.417,340.825 250.121 C 340.825 249.798,341.148 249.636,341.795 249.636 C 342.441 249.636,342.765 249.475,342.765 249.151 C 342.765 248.848,343.071 248.666,343.583 248.666 C 344.034 248.666,344.486 248.448,344.588 248.181 C 344.690 247.914,344.977 247.696,345.225 247.696 C 345.472 247.696,345.675 247.478,345.675 247.211 C 345.675 246.909,345.980 246.726,346.483 246.726 C 346.928 246.726,347.292 246.580,347.292 246.403 C 347.292 246.225,347.510 246.079,347.777 246.079 C 348.044 246.079,348.262 245.861,348.262 245.594 C 348.262 245.317,348.553 245.109,348.941 245.109 C 349.315 245.109,350.284 244.454,351.096 243.654 C 351.908 242.854,352.839 242.199,353.166 242.199 C 353.492 242.199,353.759 241.981,353.759 241.714 C 353.759 241.447,353.922 241.229,354.120 241.229 C 354.319 241.229,355.046 240.647,355.737 239.935 C 356.427 239.224,357.215 238.642,357.488 238.642 C 357.760 238.642,358.067 238.424,358.169 238.157 C 358.272 237.890,358.558 237.672,358.806 237.672 C 359.054 237.672,359.256 237.454,359.256 237.187 C 359.256 236.920,359.490 236.702,359.776 236.702 C 360.105 236.702,360.227 236.524,360.109 236.217 C 359.994 235.915,360.111 235.732,360.421 235.732 C 360.994 235.732,361.843 234.973,361.843 234.461 C 361.843 234.271,362.061 234.115,362.328 234.115 C 362.595 234.115,362.813 233.897,362.813 233.630 C 362.813 233.363,363.032 233.145,363.298 233.145 C 363.565 233.145,363.783 232.926,363.783 232.660 C 363.783 232.393,364.002 232.175,364.268 232.175 C 364.535 232.175,364.753 231.889,364.753 231.540 C 364.753 231.192,365.335 230.330,366.047 229.626 C 366.758 228.921,367.340 228.188,367.340 227.996 C 367.340 227.804,367.559 227.648,367.825 227.648 C 368.092 227.648,368.310 227.429,368.310 227.162 C 368.310 226.896,368.529 226.677,368.795 226.677 C 369.119 226.677,369.281 226.354,369.281 225.707 C 369.281 225.174,369.424 224.737,369.600 224.737 C 370.092 224.737,371.221 223.674,371.221 223.210 C 371.221 222.983,371.363 222.797,371.538 222.797 C 371.712 222.797,371.946 222.433,372.058 221.989 C 372.170 221.544,372.391 221.180,372.549 221.180 C 372.708 221.180,372.838 220.978,372.838 220.730 C 372.838 220.482,373.056 220.196,373.323 220.093 C 373.589 219.991,373.808 219.612,373.808 219.250 C 373.808 218.882,374.021 218.593,374.293 218.593 C 374.559 218.593,374.760 218.484,374.739 218.351 C 374.599 217.459,374.847 216.653,375.263 216.653 C 375.586 216.653,375.748 216.330,375.748 215.683 C 375.748 215.036,375.909 214.713,376.233 214.713 C 376.500 214.713,376.718 214.495,376.718 214.228 C 376.718 213.961,376.835 213.743,376.979 213.743 C 377.406 213.743,378.335 211.343,378.335 210.239 C 378.335 209.545,378.491 209.216,378.820 209.216 C 379.122 209.216,379.305 208.910,379.305 208.407 C 379.305 207.904,379.488 207.599,379.790 207.599 C 380.128 207.599,380.275 207.259,380.275 206.477 C 380.275 205.590,380.381 205.397,380.784 205.551 C 381.108 205.675,381.271 205.583,381.231 205.299 C 381.043 203.955,381.279 202.749,381.730 202.749 C 382.078 202.749,382.215 202.393,382.215 201.490 C 382.215 200.738,382.389 200.164,382.647 200.065 C 382.890 199.972,383.098 199.358,383.125 198.659 C 383.150 197.976,383.320 197.368,383.502 197.308 C 383.683 197.247,383.832 196.623,383.832 195.921 C 383.832 195.084,383.999 194.580,384.317 194.458 C 384.678 194.319,384.802 193.744,384.802 192.205 C 384.802 190.583,384.906 190.137,385.287 190.137 C 385.680 190.137,385.772 189.616,385.772 187.389 C 385.772 185.161,385.864 184.640,386.257 184.640 C 386.680 184.640,386.742 182.952,386.742 171.382 C 386.742 159.813,386.680 158.124,386.257 158.124 C 385.872 158.124,385.772 157.657,385.772 155.861 C 385.772 154.064,385.672 153.597,385.287 153.597 C 384.905 153.597,384.802 153.147,384.802 151.485 C 384.802 149.906,384.680 149.326,384.317 149.187 C 383.988 149.061,383.832 148.545,383.832 147.581 C 383.832 146.799,383.686 146.160,383.508 146.160 C 383.331 146.160,383.185 145.573,383.185 144.856 C 383.185 143.996,383.020 143.490,382.700 143.367 C 382.384 143.245,382.215 142.742,382.215 141.922 C 382.215 141.041,382.075 140.663,381.749 140.663 C 381.431 140.663,381.250 140.224,381.183 139.289 C 381.118 138.401,380.940 137.943,380.679 137.995 C 380.441 138.043,380.275 137.740,380.275 137.257 C 380.275 136.807,380.057 136.355,379.790 136.253 C 379.512 136.146,379.305 135.663,379.305 135.121 C 379.305 134.579,379.098 134.096,378.820 133.989 C 378.520 133.874,378.335 133.383,378.335 132.706 C 378.335 132.102,378.189 131.609,378.011 131.609 C 377.833 131.609,377.688 131.390,377.688 131.124 C 377.688 130.857,377.547 130.639,377.375 130.639 C 377.202 130.639,377.145 130.420,377.248 130.154 C 377.350 129.887,377.273 129.669,377.076 129.669 C 376.879 129.669,376.718 129.450,376.718 129.184 C 376.718 128.917,376.500 128.698,376.233 128.698 C 375.909 128.698,375.748 128.375,375.748 127.728 C 375.748 127.082,375.586 126.758,375.263 126.758 C 374.961 126.758,374.778 126.453,374.778 125.950 C 374.778 125.447,374.594 125.141,374.293 125.141 C 373.989 125.141,373.808 124.835,373.808 124.323 C 373.808 123.873,373.589 123.421,373.323 123.318 C 373.056 123.216,372.838 122.929,372.838 122.682 C 372.838 122.434,372.708 122.231,372.549 122.231 C 372.391 122.231,372.170 121.867,372.058 121.423 C 371.946 120.978,371.712 120.614,371.538 120.614 C 371.363 120.614,371.221 120.396,371.221 120.129 C 371.221 119.863,371.002 119.644,370.736 119.644 C 370.469 119.644,370.251 119.426,370.251 119.159 C 370.251 118.892,370.032 118.674,369.766 118.674 C 369.442 118.674,369.281 118.351,369.281 117.704 C 369.281 117.057,369.119 116.734,368.795 116.734 C 368.529 116.734,368.310 116.516,368.310 116.249 C 368.310 115.982,368.155 115.764,367.964 115.764 C 367.516 115.764,366.694 114.941,366.694 114.494 C 366.694 114.303,366.475 114.147,366.209 114.147 C 365.942 114.147,365.724 113.929,365.724 113.662 C 365.724 113.395,365.505 113.177,365.238 113.177 C 364.958 113.177,364.753 112.884,364.753 112.482 C 364.753 111.781,362.812 109.620,362.183 109.620 C 361.996 109.620,361.843 109.476,361.843 109.300 C 361.843 108.801,360.789 107.694,360.490 107.879 C 360.342 107.970,360.123 107.787,360.002 107.472 C 359.612 106.455,358.807 105.740,358.053 105.740 C 357.648 105.740,357.316 105.584,357.316 105.393 C 357.316 104.946,356.493 104.123,356.046 104.123 C 355.855 104.123,355.699 103.905,355.699 103.638 C 355.699 103.371,355.481 103.153,355.214 103.153 C 354.947 103.153,354.729 102.935,354.729 102.668 C 354.729 102.401,354.511 102.183,354.244 102.183 C 353.977 102.183,353.759 101.958,353.759 101.683 C 353.759 101.409,353.577 101.208,353.355 101.237 C 352.468 101.352,351.819 101.195,351.819 100.864 C 351.819 100.179,349.929 98.626,349.095 98.626 C 348.570 98.626,348.262 98.446,348.262 98.141 C 348.262 97.874,348.044 97.656,347.777 97.656 C 347.510 97.656,347.292 97.437,347.292 97.171 C 347.292 96.869,346.986 96.686,346.483 96.686 C 345.980 96.686,345.675 96.502,345.675 96.200 C 345.675 95.934,345.472 95.715,345.225 95.715 C 344.977 95.715,344.690 95.497,344.588 95.230 C 344.486 94.964,344.034 94.745,343.583 94.745 C 343.071 94.745,342.765 94.564,342.765 94.260 C 342.765 93.979,342.472 93.775,342.068 93.775 C 341.684 93.775,340.894 93.411,340.311 92.967 C 339.728 92.522,339.023 92.158,338.744 92.158 C 338.466 92.158,338.238 91.940,338.238 91.673 C 338.238 91.350,337.914 91.188,337.268 91.188 C 336.621 91.188,336.297 91.027,336.297 90.703 C 336.297 90.407,335.996 90.218,335.524 90.218 C 335.098 90.218,334.666 90.000,334.564 89.733 C 334.461 89.466,334.025 89.248,333.594 89.248 C 333.162 89.248,332.726 89.030,332.624 88.763 C 332.297 87.912,330.688 88.181,329.815 89.234 C 329.379 89.761,328.840 90.197,328.618 90.205 C 328.395 90.212,328.213 90.437,328.213 90.703 C 328.213 90.970,327.995 91.188,327.728 91.188 C 327.462 91.188,327.243 91.407,327.243 91.673 C 327.243 91.940,327.025 92.158,326.758 92.158 C 326.492 92.158,326.273 92.377,326.273 92.643 C 326.273 92.910,326.138 93.129,325.972 93.129 C 325.806 93.129,325.571 93.442,325.449 93.826 C 325.327 94.209,324.881 94.844,324.457 95.237 C 324.033 95.630,323.686 96.116,323.686 96.318 C 323.686 96.520,323.462 96.686,323.187 96.686 C 322.913 96.686,322.712 96.867,322.740 97.090 C 322.853 97.954,322.702 98.626,322.397 98.626 C 322.221 98.626,321.784 98.876,321.426 99.183 C 320.620 99.873,320.492 102.183,321.261 102.183 C 321.528 102.183,321.746 102.401,321.746 102.668 C 321.746 102.935,321.899 103.153,322.085 103.153 C 322.271 103.153,322.761 103.517,323.173 103.961 C 323.585 104.406,324.237 104.770,324.623 104.770 C 325.008 104.770,325.407 104.988,325.510 105.255 C 325.612 105.521,326.028 105.740,326.435 105.740 C 326.841 105.740,327.258 105.958,327.360 106.225 C 327.463 106.492,327.899 106.710,328.330 106.710 C 328.762 106.710,329.198 106.928,329.300 107.195 C 329.403 107.462,329.767 107.680,330.109 107.680 C 330.451 107.680,330.815 107.898,330.917 108.165 C 331.020 108.432,331.472 108.650,331.922 108.650 C 332.372 108.650,332.741 108.780,332.741 108.938 C 332.741 109.097,333.133 109.325,333.613 109.446 C 334.093 109.566,334.814 110.018,335.215 110.451 C 335.615 110.883,336.241 111.237,336.605 111.237 C 336.978 111.237,337.268 111.449,337.268 111.722 C 337.268 111.989,337.486 112.207,337.753 112.207 C 338.019 112.207,338.238 112.425,338.238 112.692 C 338.238 113.015,338.561 113.177,339.208 113.177 C 339.741 113.177,340.178 113.327,340.178 113.511 C 340.178 113.910,342.021 115.764,342.418 115.764 C 342.571 115.764,342.779 115.982,342.882 116.249 C 342.984 116.516,343.436 116.734,343.886 116.734 C 344.398 116.734,344.705 116.916,344.705 117.219 C 344.705 117.486,344.923 117.704,345.190 117.704 C 345.457 117.704,345.675 117.863,345.675 118.056 C 345.675 118.486,348.486 121.261,348.921 121.261 C 349.092 121.261,349.232 121.479,349.232 121.746 C 349.232 122.013,349.450 122.231,349.717 122.231 C 349.984 122.231,350.202 122.449,350.202 122.716 C 350.202 122.983,350.420 123.201,350.687 123.201 C 350.954 123.201,351.172 123.366,351.172 123.568 C 351.172 123.770,351.536 124.273,351.981 124.685 C 352.425 125.097,352.789 125.732,352.789 126.096 C 352.789 126.469,353.001 126.758,353.274 126.758 C 353.541 126.758,353.759 126.977,353.759 127.243 C 353.759 127.510,353.977 127.728,354.244 127.728 C 354.511 127.728,354.729 127.947,354.729 128.213 C 354.729 128.480,354.947 128.698,355.214 128.698 C 355.500 128.698,355.699 128.994,355.699 129.416 C 355.699 129.810,356.029 130.429,356.433 130.790 C 356.836 131.151,357.455 132.064,357.807 132.818 C 358.159 133.571,358.630 134.190,358.852 134.192 C 359.074 134.194,359.256 134.564,359.256 135.014 C 359.256 135.464,359.475 135.917,359.741 136.019 C 360.008 136.121,360.226 136.485,360.226 136.827 C 360.226 137.170,360.445 137.533,360.711 137.636 C 360.978 137.738,361.196 138.025,361.196 138.272 C 361.196 138.520,361.415 138.723,361.681 138.723 C 361.948 138.723,362.167 138.996,362.167 139.330 C 362.167 139.664,362.386 140.464,362.655 141.107 C 362.924 141.750,363.142 142.350,363.140 142.440 C 363.124 143.158,363.176 143.264,363.460 143.088 C 363.652 142.969,363.783 143.354,363.783 144.039 C 363.783 144.847,363.928 145.190,364.268 145.190 C 364.621 145.190,364.753 145.553,364.753 146.518 C 364.753 147.566,364.856 147.807,365.238 147.660 C 365.625 147.511,365.724 147.768,365.724 148.929 C 365.724 149.924,365.877 150.443,366.209 150.570 C 366.525 150.692,366.694 151.195,366.694 152.015 C 366.694 152.919,366.831 153.274,367.179 153.274 C 367.555 153.274,367.664 153.702,367.664 155.187 C 367.664 156.240,367.809 157.149,367.987 157.208 C 368.165 157.268,368.326 158.377,368.346 159.673 C 368.369 161.212,368.538 162.186,368.831 162.479 C 369.505 163.154,369.493 183.180,368.818 183.855 C 368.504 184.170,368.353 185.068,368.348 186.657 C 368.344 187.992,368.195 189.044,368.002 189.108 C 367.816 189.170,367.664 190.078,367.664 191.124 C 367.664 192.706,367.579 192.995,367.165 192.836 C 366.891 192.731,366.690 192.772,366.719 192.927 C 366.930 194.085,366.638 195.635,366.209 195.635 C 365.860 195.635,365.724 195.990,365.724 196.893 C 365.724 197.714,365.555 198.217,365.238 198.338 C 364.972 198.441,364.753 198.831,364.753 199.205 C 364.753 199.579,364.535 200.103,364.268 200.370 C 364.002 200.636,363.783 201.285,363.783 201.812 C 363.783 202.364,363.578 202.848,363.298 202.955 C 363.032 203.057,362.813 203.489,362.813 203.915 C 362.813 204.341,362.668 204.689,362.490 204.689 C 362.312 204.689,362.167 205.125,362.167 205.659 C 362.167 206.306,362.005 206.629,361.681 206.629 C 361.415 206.629,361.196 206.915,361.196 207.266 C 361.196 207.699,361.041 207.843,360.711 207.716 C 360.357 207.580,360.226 207.756,360.226 208.373 C 360.226 208.907,360.048 209.216,359.741 209.216 C 359.475 209.216,359.273 209.325,359.295 209.458 C 359.435 210.350,359.187 211.156,358.771 211.156 C 358.504 211.156,358.286 211.374,358.286 211.641 C 358.286 211.908,358.068 212.126,357.801 212.126 C 357.534 212.126,357.316 212.344,357.316 212.611 C 357.316 212.878,357.171 213.096,356.993 213.096 C 356.815 213.096,356.669 213.460,356.669 213.905 C 356.669 214.408,356.486 214.713,356.184 214.713 C 355.918 214.713,355.699 214.931,355.699 215.198 C 355.699 215.465,355.481 215.683,355.214 215.683 C 354.947 215.683,354.729 215.901,354.729 216.168 C 354.729 216.435,354.511 216.653,354.244 216.653 C 353.977 216.653,353.759 216.871,353.759 217.138 C 353.759 217.405,353.541 217.623,353.274 217.623 C 353.007 217.623,352.789 217.788,352.789 217.990 C 352.789 218.192,352.425 218.695,351.981 219.107 C 351.536 219.519,351.172 220.008,351.172 220.195 C 351.172 220.381,351.020 220.534,350.833 220.534 C 350.647 220.534,350.157 220.897,349.745 221.342 C 349.333 221.787,348.831 222.150,348.629 222.150 C 348.427 222.150,348.262 222.369,348.262 222.635 C 348.262 222.902,348.044 223.120,347.777 223.120 C 347.510 223.120,347.292 223.339,347.292 223.605 C 347.292 223.872,347.098 224.091,346.861 224.091 C 346.625 224.091,346.236 224.454,345.998 224.899 C 345.760 225.344,345.372 225.707,345.135 225.707 C 344.899 225.707,344.705 225.926,344.705 226.192 C 344.705 226.496,344.398 226.677,343.886 226.677 C 343.436 226.677,342.984 226.896,342.882 227.162 C 342.779 227.429,342.493 227.648,342.245 227.648 C 341.997 227.648,341.795 227.866,341.795 228.133 C 341.795 228.399,341.576 228.618,341.310 228.618 C 341.043 228.618,340.825 228.836,340.825 229.103 C 340.825 229.382,340.532 229.588,340.134 229.588 C 339.754 229.588,339.106 229.951,338.694 230.396 C 338.282 230.841,337.680 231.205,337.355 231.205 C 337.030 231.205,336.518 231.493,336.217 231.845 C 335.906 232.208,335.455 232.403,335.175 232.295 C 334.858 232.173,334.681 232.292,334.681 232.625 C 334.681 232.965,334.398 233.145,333.862 233.145 C 333.412 233.145,332.960 233.363,332.857 233.630 C 332.755 233.897,332.469 234.115,332.221 234.115 C 331.973 234.115,331.770 234.333,331.770 234.600 C 331.770 234.899,331.467 235.085,330.981 235.085 C 330.547 235.085,330.102 235.230,329.992 235.408 C 329.882 235.586,329.527 235.732,329.204 235.732 C 328.881 235.732,328.435 235.950,328.213 236.217 C 327.992 236.483,327.335 236.702,326.753 236.702 C 326.112 236.702,325.623 236.892,325.510 237.187 C 325.407 237.454,324.955 237.672,324.505 237.672 C 323.993 237.672,323.686 237.853,323.686 238.157 C 323.686 238.505,323.331 238.642,322.427 238.642 C 321.607 238.642,321.104 238.811,320.982 239.127 C 320.880 239.394,320.428 239.612,319.978 239.612 C 319.466 239.612,319.159 239.794,319.159 240.097 C 319.159 240.456,318.782 240.582,317.704 240.582 C 316.904 240.582,316.249 240.707,316.249 240.860 C 316.249 241.013,315.486 241.229,314.553 241.340 C 313.621 241.450,312.808 241.689,312.748 241.870 C 312.687 242.051,312.064 242.199,311.361 242.199 C 310.525 242.199,310.021 242.366,309.899 242.684 C 309.765 243.032,309.220 243.169,307.969 243.169 C 306.634 243.169,306.225 243.283,306.225 243.654 C 306.225 244.083,301.428 244.139,264.996 244.139 L 223.767 244.139 223.767 128.213 L 223.767 12.288 196.766 12.288 L 169.766 12.288 169.766 59.984 L 169.766 107.680 122.556 107.680 L 75.346 107.680 75.264 60.065 L 75.182 12.449 48.424 12.367 L 21.665 12.284 21.665 137.427 M225.707 15.046 C 225.707 17.200,225.601 17.846,225.222 17.991 C 224.587 18.235,224.498 27.764,225.125 28.391 C 225.422 28.688,234.528 28.785,264.010 28.805 C 285.183 28.819,302.324 28.904,302.102 28.993 C 301.880 29.083,301.698 29.508,301.698 29.938 C 301.698 30.417,301.510 30.719,301.213 30.719 C 300.946 30.719,300.728 30.938,300.728 31.205 C 300.728 31.471,300.509 31.690,300.243 31.690 C 299.959 31.690,299.752 31.992,299.744 32.417 C 299.736 32.817,299.300 33.502,298.774 33.938 C 298.222 34.396,297.817 35.045,297.817 35.474 C 297.817 35.882,297.672 36.217,297.494 36.217 C 297.316 36.217,297.171 36.435,297.171 36.702 C 297.171 36.968,296.952 37.187,296.686 37.187 C 296.384 37.187,296.200 37.492,296.200 37.995 C 296.200 38.498,296.017 38.804,295.715 38.804 C 295.449 38.804,295.230 39.022,295.230 39.289 C 295.230 39.555,295.012 39.774,294.745 39.774 C 294.422 39.774,294.260 40.097,294.260 40.744 C 294.260 41.390,294.099 41.714,293.775 41.714 C 293.508 41.714,293.290 41.917,293.290 42.164 C 293.290 42.412,293.072 42.698,292.805 42.801 C 292.538 42.903,292.320 43.283,292.320 43.644 C 292.320 44.005,292.175 44.301,291.997 44.301 C 291.819 44.301,291.673 44.519,291.673 44.786 C 291.673 45.053,291.455 45.271,291.188 45.271 C 290.922 45.271,290.703 45.474,290.703 45.721 C 290.703 45.969,290.485 46.255,290.218 46.358 C 289.951 46.460,289.733 46.912,289.733 47.363 C 289.733 47.875,289.552 48.181,289.248 48.181 C 288.981 48.181,288.763 48.384,288.763 48.632 C 288.763 48.879,288.545 49.166,288.278 49.268 C 288.011 49.370,287.793 49.684,287.793 49.965 C 287.793 50.246,287.447 50.796,287.025 51.188 C 286.211 51.942,286.176 52.017,286.176 53.032 C 286.176 53.391,285.961 53.678,285.691 53.678 C 285.424 53.678,285.206 53.897,285.206 54.163 C 285.206 54.430,284.988 54.648,284.721 54.648 C 284.419 54.648,284.236 54.954,284.236 55.457 C 284.236 55.960,284.053 56.265,283.751 56.265 C 283.484 56.265,283.266 56.483,283.266 56.750 C 283.266 57.017,283.048 57.235,282.781 57.235 C 282.458 57.235,282.296 57.559,282.296 58.205 C 282.296 58.852,282.134 59.175,281.811 59.175 C 281.544 59.175,281.326 59.394,281.326 59.660 C 281.326 59.927,281.180 60.146,281.002 60.146 C 280.825 60.146,280.679 60.364,280.679 60.631 C 280.679 60.897,280.461 61.116,280.194 61.116 C 279.925 61.116,279.709 61.403,279.709 61.762 C 279.709 62.436,278.654 63.703,278.092 63.703 C 277.914 63.703,277.769 64.139,277.769 64.673 C 277.769 65.206,277.613 65.643,277.422 65.643 C 276.880 65.643,276.204 66.453,275.971 67.382 C 275.854 67.848,275.629 68.230,275.470 68.230 C 275.312 68.230,275.182 68.448,275.182 68.715 C 275.182 68.981,274.964 69.200,274.697 69.200 C 274.373 69.200,274.212 69.523,274.212 70.170 C 274.212 70.703,274.068 71.140,273.892 71.140 C 273.320 71.140,272.272 72.239,272.272 72.839 C 272.272 73.160,272.053 73.507,271.787 73.610 C 271.520 73.712,271.302 73.946,271.302 74.128 C 271.302 74.311,270.938 74.798,270.493 75.210 C 270.049 75.622,269.685 76.257,269.685 76.622 C 269.685 76.995,269.473 77.284,269.200 77.284 C 268.922 77.284,268.715 77.575,268.715 77.965 C 268.715 78.438,268.566 78.589,268.230 78.460 C 267.866 78.321,267.745 78.514,267.745 79.234 C 267.745 79.872,267.582 80.194,267.259 80.194 C 266.993 80.194,266.774 80.412,266.774 80.679 C 266.774 80.946,266.556 81.164,266.289 81.164 C 265.988 81.164,265.804 81.470,265.804 81.973 C 265.804 82.417,265.669 82.781,265.503 82.781 C 265.337 82.781,265.108 83.074,264.994 83.432 C 264.881 83.791,264.653 84.000,264.488 83.898 C 264.323 83.796,264.188 84.158,264.188 84.702 C 264.188 85.366,264.028 85.691,263.703 85.691 C 263.436 85.691,263.217 85.909,263.217 86.176 C 263.217 86.443,262.999 86.661,262.732 86.661 C 262.466 86.661,262.247 86.864,262.247 87.112 C 262.247 87.359,262.029 87.646,261.762 87.748 C 261.496 87.851,261.277 88.230,261.277 88.591 C 261.277 88.960,261.064 89.248,260.792 89.248 C 260.525 89.248,260.307 89.466,260.307 89.733 C 260.307 90.000,260.162 90.218,259.984 90.218 C 259.806 90.218,259.660 90.587,259.660 91.037 C 259.660 91.487,259.442 91.939,259.175 92.042 C 258.909 92.144,258.690 92.430,258.690 92.678 C 258.690 92.926,258.472 93.129,258.205 93.129 C 257.904 93.129,257.720 93.434,257.720 93.937 C 257.720 94.440,257.537 94.745,257.235 94.745 C 256.968 94.745,256.750 94.964,256.750 95.230 C 256.750 95.497,256.532 95.715,256.265 95.715 C 255.942 95.715,255.780 96.039,255.780 96.686 C 255.780 97.332,255.618 97.656,255.295 97.656 C 255.028 97.656,254.810 97.874,254.810 98.141 C 254.810 98.407,254.665 98.626,254.487 98.626 C 254.309 98.626,254.163 98.989,254.163 99.434 C 254.163 99.937,253.980 100.243,253.678 100.243 C 253.411 100.243,253.193 100.461,253.193 100.728 C 253.193 100.994,252.975 101.213,252.708 101.213 C 252.441 101.213,252.223 101.413,252.223 101.658 C 252.223 101.903,252.005 102.285,251.738 102.506 C 251.471 102.727,251.253 103.182,251.253 103.516 C 251.253 103.850,251.035 104.123,250.768 104.123 C 250.501 104.123,250.283 104.341,250.283 104.608 C 250.283 104.875,250.140 105.093,249.966 105.093 C 249.791 105.093,249.557 105.457,249.446 105.901 C 249.334 106.346,249.113 106.710,248.954 106.710 C 248.796 106.710,248.666 106.928,248.666 107.195 C 248.666 107.462,248.448 107.680,248.181 107.680 C 247.858 107.680,247.696 108.003,247.696 108.650 C 247.696 109.184,247.552 109.620,247.376 109.620 C 246.147 109.620,245.313 111.971,245.952 113.636 C 246.201 114.285,247.333 114.303,247.579 113.662 C 247.681 113.395,248.103 113.177,248.516 113.177 C 248.929 113.177,249.485 112.959,249.752 112.692 C 250.018 112.425,250.761 112.207,251.402 112.207 C 252.139 112.207,252.635 112.029,252.753 111.722 C 252.879 111.393,253.395 111.237,254.360 111.237 C 255.407 111.237,255.780 111.109,255.780 110.752 C 255.780 110.393,256.157 110.267,257.235 110.267 C 258.036 110.267,258.690 110.140,258.690 109.985 C 258.690 109.830,259.412 109.608,260.294 109.491 C 261.176 109.374,261.985 109.137,262.091 108.964 C 262.198 108.791,262.831 108.650,263.498 108.650 C 264.165 108.650,264.993 108.436,265.338 108.175 C 265.696 107.905,266.682 107.696,267.629 107.690 C 268.802 107.683,269.347 107.537,269.478 107.195 C 269.619 106.828,270.213 106.710,271.915 106.710 C 273.462 106.710,274.314 106.561,274.640 106.235 C 274.991 105.884,276.011 105.749,278.567 105.715 C 281.187 105.681,282.061 105.561,282.192 105.220 C 282.321 104.885,283.058 104.770,285.079 104.770 C 288.018 104.770,288.298 104.979,286.985 106.196 C 286.516 106.630,286.176 107.304,286.176 107.798 C 286.176 108.340,286.000 108.650,285.691 108.650 C 285.424 108.650,285.206 108.795,285.206 108.973 C 285.206 109.393,284.009 110.590,283.589 110.590 C 283.411 110.590,283.266 110.954,283.266 111.399 C 283.266 111.902,283.083 112.207,282.781 112.207 C 282.514 112.207,282.296 112.359,282.296 112.546 C 282.296 112.732,281.932 113.222,281.487 113.634 C 281.043 114.046,280.679 114.694,280.679 115.073 C 280.679 115.472,280.474 115.764,280.194 115.764 C 279.927 115.764,279.709 115.982,279.709 116.249 C 279.709 116.516,279.491 116.734,279.224 116.734 C 278.957 116.734,278.739 116.952,278.739 117.219 C 278.739 117.486,278.521 117.704,278.254 117.704 C 277.987 117.704,277.769 117.922,277.769 118.189 C 277.769 118.456,277.635 118.674,277.471 118.674 C 277.307 118.674,277.078 119.111,276.960 119.644 C 276.843 120.178,276.603 120.614,276.427 120.614 C 276.000 120.614,275.182 121.449,275.182 121.885 C 275.182 122.075,274.964 122.231,274.697 122.231 C 274.373 122.231,274.212 122.555,274.212 123.201 C 274.212 123.848,274.050 124.171,273.727 124.171 C 273.460 124.171,273.242 124.390,273.242 124.656 C 273.242 124.923,273.023 125.141,272.757 125.141 C 272.490 125.141,272.272 125.360,272.272 125.627 C 272.272 125.893,272.090 126.113,271.867 126.115 C 271.645 126.117,271.185 126.699,270.845 127.409 C 270.505 128.118,270.105 128.698,269.956 128.698 C 269.807 128.698,269.685 128.917,269.685 129.184 C 269.685 129.450,269.466 129.669,269.200 129.669 C 268.933 129.669,268.715 129.887,268.715 130.154 C 268.715 130.420,268.496 130.639,268.230 130.639 C 267.928 130.639,267.745 130.944,267.745 131.447 C 267.745 131.950,267.561 132.255,267.259 132.255 C 266.993 132.255,266.774 132.474,266.774 132.741 C 266.774 133.007,266.556 133.226,266.289 133.226 C 266.023 133.226,265.804 133.444,265.804 133.711 C 265.804 133.977,265.670 134.196,265.507 134.196 C 265.343 134.196,265.113 134.632,264.996 135.166 C 264.879 135.699,264.649 136.136,264.485 136.136 C 264.322 136.136,264.188 136.354,264.188 136.621 C 264.188 136.888,263.969 137.106,263.703 137.106 C 263.436 137.106,263.217 137.251,263.217 137.429 C 263.217 137.607,262.999 137.753,262.732 137.753 C 262.466 137.753,262.247 137.955,262.247 138.203 C 262.247 138.451,262.029 138.737,261.762 138.840 C 261.496 138.942,261.277 139.394,261.277 139.844 C 261.277 140.370,261.097 140.663,260.773 140.663 C 260.496 140.663,260.360 140.809,260.470 140.989 C 260.581 141.168,260.444 141.401,260.166 141.508 C 259.888 141.615,259.660 141.905,259.660 142.153 C 259.660 142.400,259.442 142.603,259.175 142.603 C 258.874 142.603,258.690 142.908,258.690 143.411 C 258.690 143.914,258.507 144.220,258.205 144.220 C 257.939 144.220,257.720 144.438,257.720 144.705 C 257.720 144.972,257.502 145.190,257.235 145.190 C 256.968 145.190,256.750 145.408,256.750 145.675 C 256.750 145.942,256.532 146.160,256.265 146.160 C 255.942 146.160,255.780 146.483,255.780 147.130 C 255.780 147.664,255.624 148.100,255.434 148.100 C 254.922 148.100,254.163 148.950,254.163 149.522 C 254.163 149.832,253.980 149.950,253.678 149.834 C 253.311 149.693,253.193 149.892,253.193 150.653 C 253.193 151.330,253.035 151.657,252.708 151.657 C 252.441 151.657,252.223 151.876,252.223 152.142 C 252.223 152.409,252.005 152.627,251.738 152.627 C 251.471 152.627,251.253 152.830,251.253 153.078 C 251.253 153.326,251.035 153.612,250.768 153.714 C 250.501 153.817,250.283 154.181,250.283 154.523 C 250.283 154.865,250.065 155.229,249.798 155.331 C 249.531 155.434,249.311 155.849,249.308 156.255 C 249.304 156.850,249.242 156.899,248.989 156.508 C 248.752 156.140,248.675 156.276,248.671 157.074 C 248.668 157.790,248.512 158.124,248.181 158.124 C 247.879 158.124,247.696 158.430,247.696 158.933 C 247.696 159.436,247.513 159.741,247.211 159.741 C 246.888 159.741,246.726 160.065,246.726 160.711 C 246.726 161.358,246.564 161.681,246.241 161.681 C 245.918 161.681,245.756 162.005,245.756 162.652 C 245.756 163.298,245.594 163.622,245.271 163.622 C 244.952 163.622,244.786 163.941,244.786 164.552 C 244.786 165.064,244.568 165.664,244.301 165.885 C 244.005 166.131,243.816 166.840,243.816 167.703 C 243.816 168.482,243.670 169.119,243.492 169.119 C 243.314 169.119,243.169 169.919,243.169 170.897 C 243.169 172.263,243.056 172.676,242.684 172.676 C 242.267 172.676,242.199 173.700,242.199 179.951 C 242.199 186.203,242.267 187.227,242.684 187.227 C 243.054 187.227,243.169 187.633,243.169 188.941 C 243.169 189.884,243.337 190.823,243.542 191.028 C 243.747 191.233,243.902 191.852,243.886 192.404 C 243.870 192.999,244.047 193.480,244.322 193.586 C 244.577 193.684,244.786 194.185,244.786 194.699 C 244.786 195.315,244.951 195.635,245.271 195.635 C 245.538 195.635,245.756 195.920,245.756 196.268 C 245.756 197.170,246.812 199.174,247.292 199.184 C 247.524 199.188,247.696 199.605,247.696 200.162 C 247.696 200.808,247.858 201.132,248.181 201.132 C 248.483 201.132,248.666 201.437,248.666 201.940 C 248.666 202.385,248.812 202.749,248.989 202.749 C 249.167 202.749,249.313 202.967,249.313 203.234 C 249.313 203.500,249.531 203.719,249.798 203.719 C 250.121 203.719,250.283 204.042,250.283 204.689 C 250.283 205.335,250.445 205.659,250.768 205.659 C 251.035 205.659,251.253 205.877,251.253 206.144 C 251.253 206.411,251.471 206.629,251.738 206.629 C 252.005 206.629,252.223 206.847,252.223 207.114 C 252.223 207.381,252.405 207.563,252.627 207.518 C 252.855 207.473,253.076 207.826,253.134 208.327 C 253.192 208.836,253.434 209.216,253.700 209.216 C 253.955 209.216,254.163 209.381,254.163 209.583 C 254.163 209.785,254.527 210.287,254.972 210.699 C 255.416 211.111,255.780 211.601,255.780 211.787 C 255.780 211.974,255.933 212.126,256.119 212.126 C 256.305 212.126,256.795 212.490,257.207 212.935 C 257.619 213.379,258.235 213.743,258.575 213.743 C 259.201 213.743,260.307 214.777,260.307 215.363 C 260.307 215.539,260.525 215.683,260.792 215.683 C 261.059 215.683,261.277 215.908,261.277 216.182 C 261.277 216.457,261.459 216.658,261.681 216.629 C 262.657 216.502,263.217 216.688,263.217 217.138 C 263.217 217.405,263.420 217.623,263.668 217.623 C 263.916 217.623,264.202 217.842,264.304 218.108 C 264.407 218.375,264.786 218.593,265.147 218.593 C 265.509 218.593,265.804 218.739,265.804 218.917 C 265.804 219.095,266.225 219.240,266.740 219.240 C 267.273 219.240,267.755 219.449,267.861 219.725 C 267.964 219.992,268.354 220.210,268.728 220.210 C 269.102 220.210,269.626 220.428,269.893 220.695 C 270.159 220.962,270.788 221.180,271.290 221.180 C 271.815 221.180,272.284 221.393,272.394 221.680 C 272.500 221.956,272.770 222.157,272.995 222.127 C 274.513 221.929,276.152 222.192,276.152 222.635 C 276.152 223.028,276.669 223.120,278.866 223.120 C 280.908 223.120,281.623 223.234,281.756 223.578 C 282.009 224.239,292.507 224.236,293.782 223.575 C 294.304 223.304,295.627 223.120,297.056 223.120 C 298.890 223.120,299.498 223.006,299.641 222.635 C 299.761 222.322,300.261 222.150,301.051 222.150 C 301.841 222.150,302.341 221.978,302.461 221.665 C 302.584 221.345,303.091 221.180,303.951 221.180 C 304.894 221.180,305.255 221.046,305.255 220.695 C 305.255 220.345,305.614 220.210,306.548 220.210 C 307.482 220.210,307.842 220.075,307.842 219.725 C 307.842 219.402,308.165 219.240,308.812 219.240 C 309.345 219.240,309.782 219.095,309.782 218.917 C 309.782 218.739,310.062 218.593,310.405 218.593 C 310.748 218.593,311.247 218.375,311.514 218.108 C 311.781 217.842,312.155 217.623,312.346 217.623 C 312.536 217.623,312.692 217.405,312.692 217.138 C 312.692 216.836,312.997 216.653,313.500 216.653 C 314.003 216.653,314.309 216.470,314.309 216.168 C 314.309 215.901,314.527 215.683,314.794 215.683 C 315.061 215.683,315.279 215.465,315.279 215.198 C 315.279 214.782,316.085 214.534,316.977 214.675 C 317.110 214.696,317.219 214.495,317.219 214.228 C 317.219 213.961,317.375 213.743,317.566 213.743 C 317.929 213.743,318.836 212.952,318.836 212.634 C 318.836 212.321,320.110 211.156,320.453 211.156 C 320.631 211.156,320.776 211.011,320.776 210.833 C 320.776 210.413,321.974 209.216,322.393 209.216 C 322.571 209.216,322.716 208.998,322.716 208.731 C 322.716 208.464,322.872 208.246,323.063 208.246 C 323.680 208.246,324.333 207.343,324.333 206.490 C 324.333 205.967,324.513 205.659,324.818 205.659 C 325.085 205.659,325.303 205.441,325.303 205.174 C 325.303 204.907,325.521 204.689,325.788 204.689 C 326.055 204.689,326.273 204.470,326.273 204.204 C 326.273 203.937,326.492 203.719,326.758 203.719 C 327.054 203.719,327.243 203.417,327.243 202.945 C 327.243 202.519,327.462 202.087,327.728 201.985 C 327.995 201.883,328.213 201.446,328.213 201.015 C 328.213 200.584,328.432 200.147,328.698 200.045 C 328.965 199.942,329.184 199.490,329.184 199.040 C 329.184 198.590,329.329 198.222,329.507 198.222 C 329.685 198.222,329.830 197.858,329.830 197.413 C 329.830 196.910,330.013 196.605,330.315 196.605 C 330.675 196.605,330.800 196.227,330.800 195.150 C 330.800 194.072,330.926 193.694,331.285 193.694 C 331.633 193.694,331.770 193.339,331.770 192.436 C 331.770 191.615,331.939 191.112,332.255 190.991 C 332.612 190.854,332.741 190.292,332.741 188.877 C 332.741 187.578,332.902 186.789,333.235 186.455 C 333.946 185.744,333.916 172.088,333.203 171.814 C 332.882 171.691,332.741 171.109,332.741 169.916 C 332.741 168.817,332.565 168.020,332.255 167.710 C 331.983 167.438,331.770 166.647,331.770 165.908 C 331.770 165.028,331.637 164.619,331.366 164.673 C 331.124 164.721,330.921 164.332,330.861 163.703 C 330.798 163.052,330.583 162.652,330.295 162.652 C 330.011 162.652,329.830 162.327,329.830 161.820 C 329.830 161.363,329.618 160.776,329.359 160.517 C 329.100 160.258,328.970 159.832,329.070 159.570 C 329.184 159.273,329.058 159.095,328.733 159.095 C 328.371 159.095,328.213 158.800,328.213 158.124 C 328.213 157.478,328.052 157.154,327.728 157.154 C 327.462 157.154,327.243 156.954,327.243 156.709 C 327.243 156.464,327.025 156.082,326.758 155.861 C 326.492 155.640,326.273 155.185,326.273 154.851 C 326.273 154.517,326.055 154.244,325.788 154.244 C 325.521 154.244,325.303 154.099,325.303 153.921 C 325.303 153.743,325.085 153.597,324.818 153.597 C 324.510 153.597,324.333 153.287,324.333 152.745 C 324.333 152.252,323.993 151.578,323.525 151.144 C 323.080 150.732,322.716 150.242,322.716 150.056 C 322.716 149.870,322.498 149.717,322.231 149.717 C 321.964 149.717,321.746 149.499,321.746 149.232 C 321.746 148.965,321.528 148.747,321.261 148.747 C 320.994 148.747,320.776 148.601,320.776 148.424 C 320.776 148.246,320.558 148.100,320.291 148.100 C 320.024 148.100,319.806 147.882,319.806 147.615 C 319.806 147.348,319.624 147.124,319.402 147.116 C 319.179 147.109,318.641 146.672,318.204 146.146 C 317.768 145.620,317.150 145.190,316.830 145.190 C 316.510 145.190,316.249 144.972,316.249 144.705 C 316.249 144.438,316.031 144.220,315.764 144.220 C 315.497 144.220,315.279 144.002,315.279 143.735 C 315.279 143.429,314.971 143.250,314.447 143.250 C 313.595 143.250,312.692 142.597,312.692 141.979 C 312.692 141.789,312.255 141.633,311.722 141.633 C 311.075 141.633,310.752 141.471,310.752 141.148 C 310.752 140.825,310.428 140.663,309.782 140.663 C 309.135 140.663,308.812 140.501,308.812 140.178 C 308.812 139.882,308.510 139.693,308.038 139.693 C 307.612 139.693,307.180 139.475,307.078 139.208 C 306.976 138.941,306.536 138.723,306.100 138.723 C 305.665 138.723,305.257 138.568,305.194 138.378 C 305.131 138.189,304.464 137.952,303.712 137.851 C 302.960 137.750,302.344 137.541,302.344 137.387 C 302.344 137.232,301.489 137.106,300.444 137.106 C 299.149 137.106,298.415 136.951,298.141 136.621 C 297.833 136.250,296.989 136.136,294.544 136.136 C 291.921 136.136,291.350 136.049,291.350 135.651 C 291.350 135.278,290.937 135.166,289.572 135.166 C 288.206 135.166,287.793 135.053,287.793 134.681 C 287.793 134.414,288.011 134.196,288.278 134.196 C 288.545 134.196,288.763 133.977,288.763 133.711 C 288.763 133.444,288.981 133.226,289.248 133.226 C 289.515 133.226,289.733 133.007,289.733 132.741 C 289.733 132.474,289.951 132.255,290.218 132.255 C 290.485 132.255,290.703 132.037,290.703 131.770 C 290.703 131.504,290.833 131.285,290.992 131.285 C 291.150 131.285,291.371 130.922,291.483 130.477 C 291.594 130.032,291.828 129.669,292.003 129.669 C 292.177 129.669,292.320 129.450,292.320 129.184 C 292.320 128.917,292.538 128.698,292.805 128.698 C 293.072 128.698,293.290 128.480,293.290 128.213 C 293.290 127.947,293.508 127.728,293.775 127.728 C 294.056 127.728,294.260 127.435,294.260 127.032 C 294.260 126.631,294.823 125.816,295.587 125.111 C 296.412 124.349,296.931 123.574,296.961 123.059 C 296.987 122.604,297.191 122.232,297.413 122.231 C 297.635 122.231,297.817 122.013,297.817 121.746 C 297.817 121.479,298.036 121.261,298.302 121.261 C 298.569 121.261,298.787 121.058,298.787 120.811 C 298.787 120.563,299.006 120.276,299.272 120.174 C 299.539 120.072,299.757 119.692,299.757 119.331 C 299.757 118.963,299.971 118.674,300.243 118.674 C 300.509 118.674,300.728 118.456,300.728 118.189 C 300.728 117.922,300.946 117.704,301.213 117.704 C 301.479 117.704,301.698 117.539,301.698 117.337 C 301.698 117.135,302.061 116.633,302.506 116.221 C 302.951 115.809,303.314 115.173,303.314 114.809 C 303.314 114.436,303.526 114.147,303.800 114.147 C 304.066 114.147,304.285 113.929,304.285 113.662 C 304.285 113.395,304.503 113.177,304.770 113.177 C 305.036 113.177,305.255 112.974,305.255 112.727 C 305.255 112.479,305.473 112.192,305.740 112.090 C 306.006 111.988,306.225 111.536,306.225 111.085 C 306.225 110.573,306.406 110.267,306.710 110.267 C 306.977 110.267,307.195 110.111,307.195 109.920 C 307.195 109.473,308.017 108.650,308.465 108.650 C 308.656 108.650,308.812 108.213,308.812 107.680 C 308.812 107.033,308.973 106.710,309.297 106.710 C 309.563 106.710,309.782 106.492,309.782 106.225 C 309.782 105.958,310.000 105.740,310.267 105.740 C 310.534 105.740,310.752 105.521,310.752 105.255 C 310.752 104.988,310.979 104.770,311.256 104.770 C 311.533 104.770,311.673 104.629,311.568 104.458 C 311.462 104.287,311.671 103.850,312.033 103.488 C 312.396 103.126,312.692 102.684,312.692 102.506 C 312.692 102.328,312.838 102.183,313.015 102.183 C 313.193 102.183,313.339 101.964,313.339 101.698 C 313.339 101.431,313.557 101.213,313.824 101.213 C 314.091 101.213,314.309 100.994,314.309 100.728 C 314.309 100.461,314.527 100.243,314.794 100.243 C 315.063 100.243,315.279 99.955,315.279 99.596 C 315.279 98.911,316.338 97.656,316.915 97.656 C 317.103 97.656,317.172 97.517,317.067 97.348 C 316.963 97.180,317.173 96.883,317.533 96.690 C 317.920 96.484,318.189 96.012,318.189 95.542 C 318.189 95.104,318.335 94.745,318.513 94.745 C 318.690 94.745,318.836 94.527,318.836 94.260 C 318.836 93.994,319.054 93.775,319.321 93.775 C 319.588 93.775,319.806 93.557,319.806 93.290 C 319.806 93.023,320.024 92.805,320.291 92.805 C 320.593 92.805,320.776 92.500,320.776 91.997 C 320.776 91.494,320.959 91.188,321.261 91.188 C 321.528 91.188,321.746 90.970,321.746 90.703 C 321.746 90.437,321.964 90.218,322.231 90.218 C 322.498 90.218,322.716 90.000,322.716 89.733 C 322.716 89.466,322.950 89.248,323.236 89.248 C 323.565 89.248,323.687 89.070,323.569 88.763 C 323.456 88.468,323.569 88.278,323.858 88.278 C 324.149 88.278,324.333 87.965,324.333 87.470 C 324.333 86.967,324.516 86.661,324.818 86.661 C 325.085 86.661,325.303 86.443,325.303 86.176 C 325.303 85.909,325.521 85.691,325.788 85.691 C 326.055 85.691,326.273 85.473,326.273 85.206 C 326.273 84.939,326.492 84.721,326.758 84.721 C 327.082 84.721,327.243 84.398,327.243 83.751 C 327.243 83.217,327.389 82.781,327.567 82.781 C 327.996 82.781,329.184 81.579,329.184 81.145 C 329.184 80.957,329.329 80.893,329.507 81.002 C 329.696 81.119,329.830 80.790,329.830 80.213 C 329.830 79.549,329.990 79.224,330.315 79.224 C 330.582 79.224,330.800 79.006,330.800 78.739 C 330.800 78.472,331.019 78.254,331.285 78.254 C 331.552 78.254,331.770 78.036,331.770 77.769 C 331.770 77.502,331.989 77.284,332.255 77.284 C 332.557 77.284,332.741 76.978,332.741 76.475 C 332.741 75.972,332.924 75.667,333.226 75.667 C 333.492 75.667,333.711 75.449,333.711 75.182 C 333.711 74.915,333.941 74.697,334.223 74.697 C 334.504 74.697,334.677 74.524,334.607 74.313 C 334.466 73.890,335.461 72.757,335.974 72.757 C 336.152 72.757,336.297 72.466,336.297 72.110 C 336.297 71.436,337.353 70.170,337.914 70.170 C 338.092 70.170,338.238 69.967,338.238 69.719 C 338.238 69.472,338.465 69.182,338.742 69.075 C 339.104 68.937,339.219 68.536,339.147 67.666 L 339.046 66.451 329.787 66.356 C 321.784 66.274,320.460 66.329,320.028 66.760 C 319.753 67.035,319.009 67.259,318.374 67.259 C 317.563 67.259,317.219 67.404,317.219 67.745 C 317.219 68.011,317.001 68.230,316.734 68.230 C 316.467 68.230,316.249 68.448,316.249 68.715 C 316.249 69.017,315.943 69.200,315.440 69.200 C 314.804 69.200,314.510 69.478,314.070 70.493 C 313.762 71.205,313.326 71.787,313.101 71.787 C 312.876 71.787,312.692 72.005,312.692 72.272 C 312.692 72.538,312.474 72.757,312.207 72.757 C 311.940 72.757,311.722 72.959,311.722 73.207 C 311.722 73.455,311.504 73.741,311.237 73.844 C 310.970 73.946,310.752 74.398,310.752 74.848 C 310.752 75.360,310.570 75.667,310.267 75.667 C 310.000 75.667,309.782 75.885,309.782 76.152 C 309.782 76.419,309.563 76.637,309.297 76.637 C 309.030 76.637,308.812 76.855,308.812 77.122 C 308.812 77.389,308.666 77.607,308.488 77.607 C 308.310 77.607,308.165 77.971,308.165 78.416 C 308.165 78.919,307.982 79.224,307.680 79.224 C 307.413 79.224,307.195 79.427,307.195 79.674 C 307.195 79.922,306.977 80.209,306.710 80.311 C 306.443 80.413,306.225 80.865,306.225 81.316 C 306.225 81.828,306.043 82.134,305.740 82.134 C 305.473 82.134,305.255 82.352,305.255 82.619 C 305.255 82.886,305.112 83.104,304.937 83.104 C 304.763 83.104,304.529 83.468,304.417 83.913 C 304.306 84.357,304.012 84.721,303.764 84.721 C 303.517 84.721,303.314 84.939,303.314 85.206 C 303.314 85.508,303.009 85.691,302.506 85.691 C 302.003 85.691,301.698 85.874,301.698 86.176 C 301.698 86.472,301.396 86.661,300.924 86.661 C 300.498 86.661,300.066 86.880,299.964 87.146 C 299.695 87.846,284.236 87.880,284.236 87.181 C 284.236 86.933,284.461 86.644,284.736 86.539 C 285.011 86.433,285.212 86.163,285.183 85.938 C 285.071 85.084,285.222 84.721,285.691 84.721 C 285.958 84.721,286.176 84.503,286.176 84.236 C 286.176 83.969,286.322 83.751,286.500 83.751 C 286.677 83.751,286.823 83.460,286.823 83.104 C 286.823 82.431,287.878 81.164,288.440 81.164 C 288.618 81.164,288.763 80.728,288.763 80.194 C 288.763 79.547,288.925 79.224,289.248 79.224 C 289.515 79.224,289.733 79.006,289.733 78.739 C 289.733 78.472,289.951 78.254,290.218 78.254 C 290.492 78.254,290.703 77.965,290.703 77.592 C 290.703 77.227,291.067 76.592,291.512 76.180 C 291.956 75.768,292.320 75.281,292.320 75.099 C 292.320 74.916,292.538 74.682,292.805 74.580 C 293.072 74.478,293.290 74.025,293.290 73.575 C 293.290 73.063,293.472 72.757,293.775 72.757 C 294.042 72.757,294.260 72.538,294.260 72.272 C 294.260 72.005,294.479 71.787,294.745 71.787 C 295.019 71.787,295.230 71.497,295.230 71.124 C 295.230 70.760,295.584 70.134,296.016 69.734 C 296.449 69.333,296.901 68.612,297.022 68.132 C 297.142 67.652,297.370 67.259,297.529 67.259 C 297.688 67.259,297.817 67.041,297.817 66.774 C 297.817 66.508,298.036 66.289,298.302 66.289 C 298.604 66.289,298.787 65.984,298.787 65.481 C 298.787 64.978,298.971 64.673,299.272 64.673 C 299.539 64.673,299.757 64.470,299.757 64.222 C 299.757 63.974,299.976 63.688,300.243 63.586 C 300.509 63.483,300.728 63.031,300.728 62.581 C 300.728 62.055,300.908 61.762,301.232 61.762 C 301.509 61.762,301.645 61.616,301.535 61.437 C 301.424 61.258,301.548 61.029,301.810 60.928 C 302.072 60.828,302.375 60.392,302.483 59.960 C 302.591 59.529,302.823 59.175,302.997 59.175 C 303.172 59.175,303.314 58.957,303.314 58.690 C 303.314 58.424,303.533 58.205,303.800 58.205 C 304.123 58.205,304.285 57.882,304.285 57.235 C 304.285 56.589,304.446 56.265,304.770 56.265 C 305.036 56.265,305.255 56.047,305.255 55.780 C 305.255 55.513,305.473 55.295,305.740 55.295 C 306.041 55.295,306.225 54.990,306.225 54.487 C 306.225 53.984,306.408 53.678,306.710 53.678 C 306.977 53.678,307.195 53.460,307.195 53.193 C 307.195 52.926,307.329 52.708,307.492 52.708 C 307.656 52.708,307.886 52.272,308.003 51.738 C 308.120 51.205,308.350 50.768,308.514 50.768 C 308.678 50.768,308.812 50.550,308.812 50.283 C 308.812 50.016,309.030 49.798,309.297 49.798 C 309.598 49.798,309.782 49.492,309.782 48.989 C 309.782 48.486,309.965 48.181,310.267 48.181 C 310.534 48.181,310.752 47.963,310.752 47.696 C 310.752 47.429,310.970 47.211,311.237 47.211 C 311.504 47.211,311.705 47.102,311.684 46.968 C 311.543 46.077,311.791 45.271,312.207 45.271 C 312.474 45.271,312.692 45.053,312.692 44.786 C 312.692 44.519,312.838 44.301,313.015 44.301 C 313.193 44.301,313.339 43.937,313.339 43.492 C 313.339 42.989,313.522 42.684,313.824 42.684 C 314.091 42.684,314.309 42.466,314.309 42.199 C 314.309 41.932,314.527 41.714,314.794 41.714 C 315.061 41.714,315.279 41.558,315.279 41.367 C 315.279 41.177,315.497 40.803,315.764 40.536 C 316.031 40.269,316.249 39.770,316.249 39.427 C 316.249 39.084,316.467 38.804,316.734 38.804 C 317.001 38.804,317.219 38.585,317.219 38.319 C 317.219 38.052,317.362 37.833,317.536 37.833 C 317.711 37.833,317.945 37.470,318.056 37.025 C 318.168 36.580,318.389 36.217,318.548 36.217 C 318.706 36.217,318.836 35.998,318.836 35.732 C 318.836 35.465,319.054 35.247,319.321 35.247 C 319.644 35.247,319.806 34.923,319.806 34.276 C 319.806 33.630,319.968 33.306,320.291 33.306 C 320.558 33.306,320.776 33.088,320.776 32.821 C 320.776 32.555,321.001 32.336,321.275 32.336 C 321.550 32.336,321.751 32.154,321.722 31.932 C 321.612 31.081,321.763 30.719,322.231 30.719 C 322.498 30.719,322.716 30.517,322.716 30.269 C 322.716 30.021,322.935 29.735,323.201 29.632 C 323.468 29.530,323.686 29.131,323.686 28.746 C 323.686 28.360,324.050 27.708,324.495 27.296 C 324.939 26.884,325.303 26.249,325.303 25.884 C 325.303 25.511,325.515 25.222,325.788 25.222 C 326.055 25.222,326.273 25.004,326.273 24.737 C 326.273 24.470,326.492 24.252,326.758 24.252 C 327.082 24.252,327.243 23.929,327.243 23.282 C 327.243 22.749,327.402 22.312,327.596 22.312 C 328.103 22.312,329.160 20.957,329.173 20.291 C 329.179 19.980,329.329 19.725,329.507 19.725 C 329.685 19.725,329.830 19.507,329.830 19.240 C 329.830 18.973,330.049 18.755,330.315 18.755 C 330.639 18.755,330.800 18.432,330.800 17.785 C 330.800 17.251,330.969 16.815,331.176 16.815 C 331.992 16.815,333.655 14.484,333.576 13.451 L 333.500 12.449 279.604 12.368 L 225.707 12.286 225.707 15.046 M294.806 149.899 C 319.974 155.674,327.601 185.596,307.837 201.021 C 286.334 217.804,254.376 201.124,257.865 174.939 C 259.545 162.337,268.462 153.091,282.134 149.774 C 284.299 149.249,292.318 149.328,294.806 149.899 M27.167 289.976 C 27.171 303.562,27.291 312.068,27.486 312.369 C 27.690 312.684,27.801 305.038,27.804 290.461 C 27.808 275.744,27.698 268.068,27.486 268.068 C 27.273 268.068,27.164 275.583,27.167 289.976 M149.717 270.199 C 149.717 270.536,149.253 270.655,147.939 270.655 C 146.573 270.655,146.160 270.767,146.160 271.140 C 146.160 271.463,145.837 271.625,145.190 271.625 C 144.543 271.625,144.220 271.787,144.220 272.110 C 144.220 272.433,143.897 272.595,143.250 272.595 C 142.603 272.595,142.280 272.757,142.280 273.080 C 142.280 273.347,142.061 273.565,141.795 273.565 C 141.528 273.565,141.310 273.701,141.310 273.867 C 141.310 274.033,140.982 274.271,140.582 274.397 C 140.182 274.522,139.534 274.969,139.142 275.389 C 138.751 275.808,138.278 276.152,138.091 276.152 C 137.905 276.152,137.753 276.352,137.753 276.597 C 137.753 276.842,137.534 277.224,137.268 277.445 C 137.001 277.667,136.783 278.121,136.783 278.455 C 136.783 278.789,136.564 279.062,136.297 279.062 C 136.031 279.062,135.812 279.281,135.812 279.547 C 135.812 279.814,135.667 280.032,135.489 280.032 C 135.311 280.032,135.166 280.396,135.166 280.841 C 135.166 281.330,134.981 281.649,134.698 281.649 C 134.370 281.649,134.202 282.107,134.133 283.185 C 134.067 284.202,133.897 284.694,133.630 284.640 C 132.975 284.509,133.055 295.185,133.711 295.437 C 134.027 295.558,134.196 296.061,134.196 296.882 C 134.196 297.785,134.333 298.141,134.681 298.141 C 134.989 298.141,135.166 298.451,135.166 298.993 C 135.166 299.486,135.506 300.160,135.974 300.594 C 136.419 301.006,136.783 301.641,136.783 302.006 C 136.783 302.379,136.994 302.668,137.268 302.668 C 137.534 302.668,137.753 302.886,137.753 303.153 C 137.753 303.420,137.971 303.638,138.238 303.638 C 138.504 303.638,138.723 303.856,138.723 304.123 C 138.723 304.390,138.941 304.608,139.208 304.608 C 139.475 304.608,139.693 304.826,139.693 305.093 C 139.693 305.366,139.982 305.578,140.355 305.578 C 140.719 305.578,141.354 305.942,141.766 306.386 C 142.200 306.855,142.874 307.195,143.368 307.195 C 143.910 307.195,144.220 307.371,144.220 307.680 C 144.220 308.003,144.543 308.165,145.190 308.165 C 145.837 308.165,146.160 308.327,146.160 308.650 C 146.160 308.998,146.516 309.135,147.419 309.135 C 148.240 309.135,148.743 309.304,148.864 309.620 C 149.018 310.021,149.888 310.105,153.911 310.105 C 158.016 310.105,158.771 310.030,158.771 309.620 C 158.771 309.253,159.168 309.135,160.398 309.135 C 161.546 309.135,162.080 308.992,162.211 308.650 C 162.317 308.373,162.800 308.165,163.333 308.165 C 163.868 308.165,164.268 307.991,164.268 307.759 C 164.268 307.392,165.023 306.966,166.613 306.434 C 166.924 306.330,167.179 306.014,167.179 305.731 C 167.179 305.448,167.324 305.306,167.502 305.416 C 167.686 305.530,167.825 305.249,167.825 304.763 C 167.825 303.902,165.361 301.051,164.617 301.051 C 164.425 301.051,164.268 300.833,164.268 300.566 C 164.268 300.299,164.050 300.081,163.783 300.081 C 163.460 300.081,163.298 299.757,163.298 299.111 C 163.298 298.195,163.226 298.141,162.005 298.141 C 161.115 298.141,160.711 298.281,160.711 298.591 C 160.711 298.838,160.348 299.132,159.903 299.244 C 159.458 299.355,159.095 299.589,159.095 299.764 C 159.095 299.938,158.440 300.081,157.639 300.081 C 156.562 300.081,156.184 300.207,156.184 300.566 C 156.184 300.932,155.790 301.051,154.578 301.051 C 153.282 301.051,153.007 300.957,153.157 300.566 C 153.309 300.170,153.009 300.081,151.530 300.081 C 150.134 300.081,149.717 299.969,149.717 299.596 C 149.717 299.272,149.394 299.111,148.747 299.111 C 148.100 299.111,147.777 298.949,147.777 298.626 C 147.777 298.359,147.559 298.141,147.292 298.141 C 147.025 298.141,146.807 297.922,146.807 297.656 C 146.807 297.389,146.589 297.171,146.322 297.171 C 146.055 297.171,145.837 296.952,145.837 296.686 C 145.837 296.419,145.691 296.200,145.513 296.200 C 145.335 296.200,145.190 295.837,145.190 295.392 C 145.190 294.889,145.007 294.584,144.705 294.584 C 144.354 294.584,144.220 294.223,144.220 293.280 C 144.220 292.420,144.055 291.913,143.735 291.790 C 143.387 291.657,143.250 291.112,143.250 289.860 C 143.250 288.526,143.364 288.116,143.735 288.116 C 144.094 288.116,144.220 287.739,144.220 286.661 C 144.220 285.583,144.346 285.206,144.705 285.206 C 144.972 285.206,145.190 284.988,145.190 284.721 C 145.190 284.454,145.335 284.236,145.513 284.236 C 145.691 284.236,145.837 283.872,145.837 283.428 C 145.837 282.925,146.020 282.619,146.322 282.619 C 146.589 282.619,146.807 282.401,146.807 282.134 C 146.807 281.811,147.130 281.649,147.777 281.649 C 148.424 281.649,148.747 281.487,148.747 281.164 C 148.747 280.861,149.053 280.679,149.566 280.679 C 150.016 280.679,150.468 280.461,150.570 280.194 C 150.722 279.799,151.500 279.709,154.764 279.709 C 158.110 279.709,158.771 279.789,158.771 280.194 C 158.771 280.461,159.000 280.679,159.279 280.679 C 159.559 280.679,160.006 280.897,160.273 281.164 C 160.539 281.431,161.043 281.649,161.391 281.649 C 161.740 281.649,162.109 281.431,162.211 281.164 C 162.314 280.897,162.600 280.679,162.848 280.679 C 163.113 280.679,163.298 280.346,163.298 279.871 C 163.298 279.368,163.482 279.062,163.783 279.062 C 164.050 279.062,164.268 278.844,164.268 278.577 C 164.268 278.310,164.487 278.092,164.753 278.092 C 165.020 278.092,165.238 277.874,165.238 277.607 C 165.238 277.340,165.457 277.122,165.724 277.122 C 165.990 277.122,166.209 276.904,166.209 276.637 C 166.209 276.370,166.427 276.152,166.694 276.152 C 167.044 276.152,167.179 275.793,167.179 274.859 C 167.179 273.637,167.125 273.565,166.209 273.565 C 165.562 273.565,165.238 273.403,165.238 273.080 C 165.238 272.813,165.038 272.595,164.793 272.595 C 164.548 272.595,164.166 272.377,163.945 272.110 C 163.724 271.843,163.139 271.625,162.647 271.625 C 162.149 271.625,161.668 271.410,161.565 271.140 C 161.447 270.833,160.951 270.655,160.213 270.655 C 159.573 270.655,158.826 270.433,158.555 270.162 C 157.859 269.465,149.717 269.500,149.717 270.199 M245.859 270.205 C 245.758 270.468,245.227 270.655,244.579 270.655 C 243.893 270.655,243.401 270.839,243.286 271.140 C 243.184 271.407,242.897 271.625,242.649 271.625 C 242.402 271.625,242.199 271.843,242.199 272.110 C 242.199 272.388,241.908 272.595,241.517 272.595 C 240.696 272.595,239.302 273.841,239.294 274.581 C 239.291 274.874,239.070 275.196,238.804 275.299 C 238.537 275.401,238.319 275.716,238.319 275.999 C 238.319 276.282,238.173 276.424,237.995 276.314 C 237.798 276.192,237.672 276.688,237.672 277.588 C 237.672 278.683,237.547 279.062,237.187 279.062 C 236.814 279.062,236.702 279.475,236.702 280.841 L 236.702 282.619 240.744 282.619 L 244.786 282.619 244.786 281.649 C 244.786 281.002,244.947 280.679,245.271 280.679 C 245.556 280.679,245.759 280.379,245.764 279.951 C 245.784 278.226,250.338 277.421,251.710 278.901 C 252.122 279.345,252.624 279.709,252.826 279.709 C 253.028 279.709,253.193 280.146,253.193 280.679 C 253.193 281.326,253.355 281.649,253.678 281.649 C 253.945 281.649,254.163 281.867,254.163 282.134 C 254.163 282.401,253.945 282.619,253.678 282.619 C 253.355 282.619,253.193 282.943,253.193 283.589 C 253.193 284.211,253.029 284.559,252.735 284.559 C 252.483 284.559,252.229 284.669,252.169 284.802 C 251.821 285.586,249.749 286.176,247.346 286.176 L 244.786 286.176 244.786 289.895 L 244.786 293.614 247.500 293.614 C 249.614 293.614,250.255 293.721,250.400 294.099 C 250.502 294.365,250.954 294.584,251.405 294.584 C 251.917 294.584,252.223 294.765,252.223 295.069 C 252.223 295.335,252.441 295.554,252.708 295.554 C 253.003 295.554,253.193 295.855,253.193 296.323 C 253.193 296.745,253.421 297.280,253.699 297.511 C 254.157 297.891,254.157 297.957,253.699 298.213 C 253.373 298.395,253.193 298.951,253.193 299.774 C 253.193 300.891,253.100 301.051,252.449 301.051 C 252.040 301.051,251.568 301.186,251.399 301.351 C 250.922 301.817,246.951 301.888,246.799 301.433 C 246.729 301.223,246.466 301.051,246.214 301.051 C 245.921 301.051,245.756 300.702,245.756 300.081 C 245.756 299.434,245.594 299.111,245.271 299.111 C 244.947 299.111,244.786 298.787,244.786 298.141 L 244.786 297.171 240.744 297.171 L 236.702 297.171 236.702 298.959 C 236.702 300.251,236.836 300.800,237.187 300.934 C 237.503 301.055,237.672 301.558,237.672 302.379 C 237.672 303.071,237.802 303.638,237.960 303.638 C 238.119 303.638,238.340 304.002,238.451 304.446 C 238.563 304.891,238.797 305.255,238.971 305.255 C 239.146 305.255,239.289 305.441,239.289 305.668 C 239.289 306.313,240.505 307.195,241.394 307.195 C 241.894 307.195,242.199 307.379,242.199 307.680 C 242.199 307.947,242.402 308.165,242.649 308.165 C 242.897 308.165,243.184 308.383,243.286 308.650 C 243.388 308.917,243.750 309.135,244.089 309.135 C 244.429 309.135,244.888 309.353,245.109 309.620 C 245.425 310.001,246.329 310.105,249.313 310.105 C 252.297 310.105,253.201 310.001,253.517 309.620 C 253.738 309.353,254.338 309.135,254.850 309.135 C 255.461 309.135,255.780 308.969,255.780 308.650 C 255.780 308.383,255.998 308.165,256.265 308.165 C 256.532 308.165,256.750 307.947,256.750 307.680 C 256.750 307.410,257.038 307.195,257.397 307.195 C 257.753 307.195,258.335 306.904,258.690 306.548 C 259.046 306.192,259.337 305.610,259.337 305.255 C 259.337 304.895,259.553 304.608,259.822 304.608 C 260.089 304.608,260.307 304.390,260.307 304.123 C 260.307 303.856,260.525 303.638,260.792 303.638 C 261.152 303.638,261.277 303.261,261.277 302.183 C 261.277 301.105,261.403 300.728,261.762 300.728 C 262.153 300.728,262.247 300.225,262.247 298.141 C 262.247 296.057,262.153 295.554,261.762 295.554 C 261.403 295.554,261.277 295.177,261.277 294.099 C 261.277 293.021,261.152 292.643,260.792 292.643 C 260.352 292.643,260.162 292.255,260.272 291.584 C 260.295 291.445,260.094 291.248,259.825 291.145 C 259.169 290.893,259.167 289.086,259.822 289.086 C 260.146 289.086,260.307 288.763,260.307 288.116 C 260.307 287.470,260.469 287.146,260.792 287.146 C 261.143 287.146,261.277 286.786,261.277 285.843 C 261.277 285.071,261.449 284.473,261.698 284.378 C 262.349 284.128,262.412 279.919,261.774 279.282 C 261.501 279.009,261.277 278.411,261.277 277.954 C 261.277 277.430,261.098 277.122,260.792 277.122 C 260.469 277.122,260.307 276.799,260.307 276.152 C 260.307 275.505,260.146 275.182,259.822 275.182 C 259.555 275.182,259.337 274.988,259.337 274.751 C 259.337 274.515,258.973 274.126,258.529 273.888 C 258.084 273.650,257.720 273.262,257.720 273.025 C 257.720 272.789,257.502 272.595,257.235 272.595 C 256.968 272.595,256.750 272.377,256.750 272.110 C 256.750 271.791,256.431 271.625,255.815 271.625 C 255.281 271.625,254.799 271.416,254.693 271.140 C 254.591 270.873,254.207 270.655,253.840 270.655 C 253.473 270.655,253.087 270.432,252.983 270.160 C 252.719 269.471,246.125 269.513,245.859 270.205 M215.856 270.313 C 215.723 270.529,213.809 270.655,210.652 270.655 C 206.429 270.655,205.659 270.730,205.659 271.140 C 205.659 271.407,205.441 271.625,205.174 271.625 C 204.907 271.625,204.689 271.843,204.689 272.110 C 204.689 272.377,204.470 272.595,204.204 272.595 C 203.937 272.595,203.719 272.813,203.719 273.080 C 203.719 273.347,203.566 273.565,203.379 273.565 C 202.903 273.565,200.808 275.649,200.808 276.123 C 200.808 276.338,200.663 276.424,200.485 276.314 C 200.307 276.204,200.162 276.341,200.162 276.618 C 200.162 276.895,199.943 277.122,199.677 277.122 C 199.410 277.122,199.192 277.340,199.192 277.607 C 199.192 277.874,198.973 278.092,198.707 278.092 C 198.440 278.092,198.222 278.310,198.222 278.577 C 198.222 278.844,198.003 279.062,197.736 279.062 C 197.470 279.062,197.251 279.218,197.251 279.409 C 197.251 279.599,197.033 279.973,196.766 280.240 C 196.335 280.671,196.281 280.166,196.281 275.690 L 196.281 270.655 191.781 270.655 C 189.305 270.655,187.086 270.729,186.849 270.820 C 186.497 270.955,186.430 274.418,186.480 289.979 L 186.540 308.973 191.411 309.063 L 196.281 309.152 196.281 301.868 C 196.281 295.609,196.350 294.584,196.766 294.584 C 197.033 294.584,197.251 294.365,197.251 294.099 C 197.251 293.775,197.575 293.614,198.222 293.614 C 199.084 293.614,199.192 293.721,199.192 294.584 C 199.192 295.230,199.353 295.554,199.677 295.554 C 199.978 295.554,200.162 295.859,200.162 296.362 C 200.162 296.807,200.307 297.171,200.485 297.171 C 200.663 297.171,200.808 297.451,200.808 297.794 C 200.808 298.137,201.027 298.636,201.293 298.903 C 201.560 299.170,201.778 299.544,201.778 299.734 C 201.778 299.925,201.997 300.081,202.264 300.081 C 202.565 300.081,202.749 300.386,202.749 300.889 C 202.749 301.392,202.932 301.698,203.234 301.698 C 203.561 301.698,203.719 302.025,203.719 302.702 C 203.719 303.463,203.837 303.662,204.204 303.521 C 204.505 303.405,204.689 303.523,204.689 303.833 C 204.689 304.107,204.907 304.549,205.174 304.816 C 205.441 305.083,205.659 305.581,205.659 305.924 C 205.659 306.267,205.804 306.548,205.982 306.548 C 206.160 306.548,206.306 306.920,206.306 307.376 C 206.306 307.880,206.440 308.120,206.651 307.990 C 206.841 307.872,207.074 308.075,207.169 308.440 C 207.332 309.063,216.142 309.674,217.866 309.181 C 218.475 309.007,218.399 306.548,217.785 306.548 C 217.518 306.548,217.300 306.330,217.300 306.063 C 217.300 305.796,217.082 305.578,216.815 305.578 C 216.492 305.578,216.330 305.255,216.330 304.608 C 216.330 304.074,216.200 303.638,216.042 303.638 C 215.883 303.638,215.662 303.274,215.550 302.829 C 215.439 302.385,215.205 302.021,215.030 302.021 C 214.856 302.021,214.713 301.803,214.713 301.536 C 214.713 301.269,214.495 301.051,214.228 301.051 C 213.905 301.051,213.743 300.728,213.743 300.081 C 213.743 299.434,213.581 299.111,213.258 299.111 C 212.991 299.111,212.773 298.892,212.773 298.626 C 212.773 298.359,212.564 298.141,212.309 298.141 C 212.044 298.141,211.802 297.760,211.743 297.251 C 211.686 296.751,211.464 296.398,211.237 296.443 C 210.988 296.493,210.833 296.164,210.833 295.588 C 210.833 295.038,210.624 294.573,210.327 294.459 C 210.049 294.352,209.912 294.118,210.023 293.939 C 210.134 293.760,209.997 293.614,209.720 293.614 C 209.410 293.614,209.216 293.328,209.216 292.871 C 209.216 292.442,208.811 291.793,208.259 291.335 C 207.733 290.899,207.297 290.214,207.289 289.814 C 207.281 289.389,207.074 289.086,206.791 289.086 C 206.467 289.086,206.306 288.763,206.306 288.116 C 206.306 287.470,206.144 287.146,205.821 287.146 C 205.497 287.146,205.335 286.823,205.335 286.176 C 205.335 285.530,205.497 285.206,205.821 285.206 C 206.087 285.206,206.306 284.988,206.306 284.721 C 206.306 284.454,206.489 284.236,206.714 284.236 C 207.102 284.236,207.639 283.457,208.108 282.215 C 208.225 281.904,208.522 281.649,208.769 281.649 C 209.015 281.649,209.216 281.431,209.216 281.164 C 209.216 280.897,209.434 280.679,209.701 280.679 C 209.968 280.679,210.186 280.535,210.186 280.359 C 210.186 279.863,211.240 278.752,211.537 278.936 C 211.683 279.027,211.803 278.874,211.803 278.596 C 211.803 278.319,212.021 278.092,212.288 278.092 C 212.555 278.092,212.773 277.874,212.773 277.607 C 212.773 277.340,212.991 277.122,213.258 277.122 C 213.525 277.122,213.743 276.904,213.743 276.637 C 213.743 276.370,213.961 276.152,214.228 276.152 C 214.495 276.152,214.713 275.934,214.713 275.667 C 214.713 275.400,214.931 275.182,215.198 275.182 C 215.465 275.182,215.683 275.026,215.683 274.835 C 215.683 274.645,215.891 274.281,216.145 274.027 C 216.399 273.773,216.763 273.565,216.953 273.565 C 217.144 273.565,217.300 273.354,217.300 273.096 C 217.300 272.838,217.530 272.498,217.812 272.341 C 218.785 271.796,218.272 270.186,217.088 270.071 C 216.526 270.016,215.972 270.125,215.856 270.313 M287.308 270.331 C 287.192 270.520,285.381 270.655,282.974 270.655 C 278.860 270.655,277.769 270.953,277.769 272.078 C 277.769 272.210,277.551 272.536,277.284 272.803 C 277.017 273.070,276.799 273.569,276.799 273.912 C 276.799 274.255,276.656 274.535,276.482 274.535 C 276.307 274.535,276.073 274.899,275.961 275.344 C 275.850 275.788,275.629 276.152,275.470 276.152 C 275.312 276.152,275.182 276.589,275.182 277.122 C 275.182 277.769,275.020 278.092,274.697 278.092 C 274.422 278.092,274.212 278.382,274.212 278.762 C 274.212 279.130,273.994 279.650,273.727 279.917 C 273.460 280.184,273.242 280.683,273.242 281.026 C 273.242 281.369,273.023 281.649,272.757 281.649 C 272.433 281.649,272.272 281.973,272.272 282.619 C 272.272 283.266,272.110 283.589,271.787 283.589 C 271.520 283.589,271.302 283.738,271.302 283.919 C 271.302 284.101,270.938 284.825,270.493 285.530 C 270.049 286.234,269.685 287.088,269.685 287.429 C 269.685 287.769,269.466 288.131,269.200 288.233 C 268.933 288.336,268.715 288.788,268.715 289.238 C 268.715 289.750,268.533 290.057,268.230 290.057 C 267.928 290.057,267.745 290.362,267.745 290.865 C 267.745 291.368,267.561 291.673,267.259 291.673 C 266.940 291.673,266.774 291.993,266.774 292.609 C 266.774 293.142,266.566 293.624,266.289 293.731 C 265.897 293.881,265.804 294.630,265.804 297.656 C 265.804 300.681,265.897 301.430,266.289 301.581 C 266.566 301.687,266.774 302.169,266.774 302.702 C 266.774 303.318,266.940 303.638,267.259 303.638 C 267.526 303.638,267.745 303.856,267.745 304.123 C 267.745 304.390,267.963 304.608,268.230 304.608 C 268.526 304.608,268.715 304.909,268.715 305.381 C 268.715 305.937,268.943 306.212,269.523 306.358 C 269.968 306.469,270.331 306.703,270.331 306.878 C 270.331 307.052,270.550 307.195,270.816 307.195 C 271.083 307.195,271.302 307.413,271.302 307.680 C 271.302 307.947,271.577 308.165,271.914 308.165 C 272.250 308.165,272.610 308.383,272.712 308.650 C 272.829 308.954,273.323 309.135,274.040 309.135 C 274.839 309.135,275.182 309.280,275.182 309.620 C 275.182 310.026,275.860 310.105,279.346 310.105 C 282.653 310.105,283.593 310.005,283.913 309.620 C 284.134 309.353,284.666 309.135,285.094 309.135 C 285.523 309.135,285.957 308.917,286.059 308.650 C 286.162 308.383,286.594 308.165,287.019 308.165 C 287.491 308.165,287.793 307.976,287.793 307.680 C 287.793 307.413,287.958 307.195,288.160 307.195 C 288.362 307.195,288.864 306.831,289.277 306.386 C 289.689 305.942,290.178 305.578,290.365 305.578 C 290.551 305.578,290.703 305.422,290.703 305.232 C 290.703 305.041,290.922 304.667,291.188 304.400 C 291.455 304.133,291.673 303.643,291.673 303.310 C 291.673 302.978,291.819 302.616,291.997 302.506 C 292.175 302.396,292.320 301.821,292.320 301.228 C 292.320 300.568,292.508 300.078,292.805 299.964 C 293.168 299.825,293.290 299.245,293.290 297.666 C 293.290 296.004,293.187 295.554,292.805 295.554 C 292.447 295.554,292.320 295.179,292.320 294.126 C 292.320 293.340,292.167 292.646,291.979 292.584 C 291.792 292.521,291.603 292.254,291.559 291.991 C 291.431 291.216,290.581 290.057,290.140 290.057 C 289.916 290.057,289.733 289.838,289.733 289.572 C 289.733 289.305,289.515 289.086,289.248 289.086 C 288.981 289.086,288.763 288.868,288.763 288.601 C 288.763 288.335,288.545 288.116,288.278 288.116 C 288.011 288.116,287.793 287.974,287.793 287.799 C 287.793 287.625,287.440 287.393,287.008 287.285 C 286.576 287.177,286.144 286.883,286.048 286.632 C 285.952 286.381,285.625 286.176,285.322 286.176 C 283.502 286.176,281.839 284.695,282.781 283.913 C 283.048 283.691,283.266 283.325,283.266 283.099 C 283.266 282.873,283.484 282.605,283.751 282.502 C 284.018 282.400,284.236 281.948,284.236 281.498 C 284.236 280.986,284.418 280.679,284.721 280.679 C 284.996 280.679,285.206 280.389,285.206 280.009 C 285.206 279.641,285.424 279.121,285.691 278.854 C 285.958 278.588,286.176 278.089,286.176 277.746 C 286.176 277.403,286.322 277.122,286.500 277.122 C 286.677 277.122,286.823 276.686,286.823 276.152 C 286.823 275.505,286.985 275.182,287.308 275.182 C 287.610 275.182,287.793 274.876,287.793 274.373 C 287.793 273.870,287.976 273.565,288.278 273.565 C 288.615 273.565,288.763 273.227,288.763 272.460 C 288.763 271.853,288.935 271.298,289.145 271.228 C 289.358 271.157,289.434 270.860,289.317 270.555 C 289.089 269.961,287.637 269.800,287.308 270.331 M98.302 271.105 C 98.302 271.353,98.084 271.639,97.817 271.742 C 97.551 271.844,97.332 272.296,97.332 272.747 C 97.332 273.197,97.187 273.565,97.009 273.565 C 96.831 273.565,96.686 273.861,96.686 274.222 C 96.686 274.583,96.467 274.963,96.200 275.065 C 95.934 275.167,95.715 275.438,95.715 275.667 C 95.715 275.896,95.497 276.167,95.230 276.269 C 94.964 276.371,94.745 276.823,94.745 277.274 C 94.745 277.786,94.564 278.092,94.260 278.092 C 93.957 278.092,93.775 278.399,93.775 278.911 C 93.775 279.361,93.557 279.813,93.290 279.915 C 93.023 280.018,92.805 280.450,92.805 280.875 C 92.805 281.301,92.671 281.649,92.508 281.649 C 92.344 281.649,92.114 282.086,91.997 282.619 C 91.880 283.153,91.650 283.589,91.486 283.589 C 91.322 283.589,91.188 283.938,91.188 284.363 C 91.188 284.789,90.970 285.221,90.703 285.323 C 90.437 285.425,90.218 285.878,90.218 286.328 C 90.218 286.840,90.037 287.146,89.733 287.146 C 89.466 287.146,89.248 287.375,89.248 287.654 C 89.248 287.934,89.030 288.381,88.763 288.648 C 88.496 288.914,88.278 289.413,88.278 289.756 C 88.278 290.099,88.100 290.344,87.882 290.299 C 87.663 290.255,87.435 290.546,87.374 290.946 C 87.313 291.346,87.128 291.673,86.962 291.673 C 86.797 291.673,86.661 292.110,86.661 292.643 C 86.661 293.290,86.500 293.614,86.176 293.614 C 85.853 293.614,85.691 293.937,85.691 294.584 C 85.691 295.230,85.530 295.554,85.206 295.554 C 84.904 295.554,84.721 295.859,84.721 296.362 C 84.721 296.865,84.538 297.171,84.236 297.171 C 83.913 297.171,83.751 297.494,83.751 298.141 C 83.751 298.787,83.589 299.111,83.266 299.111 C 82.943 299.111,82.781 299.434,82.781 300.081 C 82.781 300.728,82.619 301.051,82.296 301.051 C 82.029 301.051,81.811 301.269,81.811 301.536 C 81.811 301.803,81.665 302.021,81.487 302.021 C 81.310 302.021,81.164 302.385,81.164 302.829 C 81.164 303.317,80.980 303.638,80.700 303.638 C 80.412 303.638,80.196 304.038,80.134 304.689 C 80.073 305.318,79.870 305.707,79.628 305.659 C 79.377 305.609,79.224 305.944,79.224 306.548 C 79.224 307.195,79.062 307.518,78.739 307.518 C 78.241 307.518,78.102 308.363,78.450 309.270 C 78.668 309.838,80.356 309.981,80.679 309.458 C 80.796 309.270,82.623 309.135,85.064 309.135 C 88.425 309.135,89.248 309.046,89.248 308.685 C 89.248 308.437,89.466 308.150,89.733 308.048 C 90.000 307.946,90.218 307.509,90.218 307.078 C 90.218 306.647,90.437 306.210,90.703 306.108 C 90.970 306.005,91.188 305.626,91.188 305.265 C 91.188 304.904,91.334 304.608,91.512 304.608 C 91.690 304.608,91.835 304.171,91.835 303.638 C 91.835 302.991,91.997 302.668,92.320 302.668 C 92.622 302.668,92.805 302.362,92.805 301.859 C 92.805 301.356,92.988 301.051,93.290 301.051 C 93.614 301.051,93.775 300.728,93.775 300.081 C 93.775 299.434,93.937 299.111,94.260 299.111 C 94.584 299.111,94.745 298.787,94.745 298.141 C 94.745 297.494,94.907 297.171,95.230 297.171 C 95.497 297.171,95.715 296.887,95.715 296.541 C 95.715 296.194,96.079 295.518,96.524 295.038 C 96.968 294.558,97.332 293.823,97.332 293.405 C 97.332 292.944,97.524 292.643,97.817 292.643 C 98.141 292.643,98.302 292.320,98.302 291.673 C 98.302 291.027,98.464 290.703,98.787 290.703 C 99.089 290.703,99.272 290.398,99.272 289.895 C 99.272 289.392,99.456 289.086,99.757 289.086 C 100.024 289.086,100.243 289.232,100.243 289.410 C 100.243 289.588,100.461 289.733,100.728 289.733 C 101.178 289.733,101.363 290.294,101.237 291.269 C 101.208 291.492,101.409 291.673,101.683 291.673 C 102.023 291.673,102.183 291.985,102.183 292.643 C 102.183 293.177,102.328 293.614,102.506 293.614 C 102.684 293.614,102.829 293.814,102.829 294.059 C 102.829 294.304,103.048 294.686,103.314 294.907 C 103.581 295.128,103.800 295.660,103.800 296.089 C 103.800 296.517,104.009 296.948,104.265 297.046 C 104.521 297.144,104.823 297.649,104.937 298.168 C 105.051 298.686,105.278 299.111,105.442 299.111 C 105.606 299.111,105.740 299.479,105.740 299.929 C 105.740 300.380,105.958 300.832,106.225 300.934 C 106.492 301.036,106.710 301.468,106.710 301.894 C 106.710 302.366,106.899 302.668,107.195 302.668 C 107.494 302.668,107.680 302.971,107.680 303.457 C 107.680 303.891,107.825 304.336,108.003 304.446 C 108.181 304.556,108.327 304.911,108.327 305.234 C 108.327 305.558,108.545 306.003,108.812 306.225 C 109.078 306.446,109.297 306.973,109.297 307.396 C 109.297 307.864,109.487 308.165,109.782 308.165 C 110.049 308.165,110.267 308.383,110.267 308.650 C 110.267 309.056,110.947 309.135,114.451 309.135 C 116.892 309.135,118.719 309.270,118.836 309.458 C 119.155 309.975,120.938 309.854,120.938 309.316 C 120.938 309.059,120.792 308.760,120.614 308.650 C 120.437 308.540,120.291 308.022,120.291 307.499 C 120.291 306.869,120.127 306.548,119.806 306.548 C 119.483 306.548,119.321 306.225,119.321 305.578 C 119.321 305.044,119.175 304.608,118.998 304.608 C 118.820 304.608,118.674 304.240,118.674 303.789 C 118.674 303.339,118.456 302.887,118.189 302.785 C 117.922 302.682,117.704 302.319,117.704 301.976 C 117.704 301.634,117.486 301.270,117.219 301.168 C 116.943 301.062,116.734 300.579,116.734 300.046 C 116.734 299.430,116.568 299.111,116.249 299.111 C 115.926 299.111,115.764 298.787,115.764 298.141 C 115.764 297.537,115.611 297.201,115.360 297.251 C 115.132 297.297,114.911 296.943,114.853 296.443 C 114.795 295.934,114.553 295.554,114.287 295.554 C 113.991 295.554,113.824 295.214,113.824 294.611 C 113.824 294.092,113.682 293.619,113.510 293.560 C 113.337 293.500,113.142 293.096,113.076 292.661 C 113.010 292.225,112.788 291.813,112.582 291.744 C 112.376 291.676,112.207 291.268,112.207 290.838 C 112.207 290.359,112.019 290.057,111.722 290.057 C 111.386 290.057,111.237 289.720,111.237 288.964 C 111.237 288.364,111.019 287.691,110.752 287.470 C 110.485 287.248,110.267 286.789,110.267 286.450 C 110.267 286.110,110.049 285.749,109.782 285.646 C 109.515 285.544,109.297 285.108,109.297 284.676 C 109.297 284.245,109.078 283.809,108.812 283.706 C 108.545 283.604,108.327 283.172,108.327 282.746 C 108.327 282.321,108.181 281.973,108.003 281.973 C 107.825 281.973,107.680 281.692,107.680 281.349 C 107.680 281.006,107.462 280.507,107.195 280.240 C 106.928 279.973,106.710 279.449,106.710 279.075 C 106.710 278.701,106.492 278.311,106.225 278.209 C 105.958 278.107,105.740 277.670,105.740 277.239 C 105.740 276.808,105.521 276.371,105.255 276.269 C 104.988 276.167,104.770 275.735,104.770 275.309 C 104.770 274.837,104.581 274.535,104.285 274.535 C 103.835 274.535,103.649 273.974,103.775 272.999 C 103.804 272.777,103.603 272.595,103.329 272.595 C 102.990 272.595,102.829 272.284,102.829 271.625 L 102.829 270.655 100.566 270.655 C 98.847 270.655,98.302 270.763,98.302 271.105 M32.738 271.570 C 32.417 271.773,32.349 275.692,32.414 290.077 L 32.498 308.327 35.926 308.418 C 40.380 308.536,40.066 309.130,40.172 300.379 L 40.259 293.129 47.211 293.129 L 54.163 293.129 54.325 300.728 L 54.487 308.327 58.205 308.327 L 61.924 308.327 62.008 290.255 C 62.068 277.177,61.990 272.061,61.725 271.742 C 61.245 271.163,55.285 271.118,54.713 271.690 C 54.437 271.966,54.325 273.963,54.325 278.623 C 54.325 282.691,54.201 285.245,53.998 285.370 C 53.756 285.519,43.607 285.647,40.420 285.540 C 40.216 285.533,40.097 283.105,40.097 278.924 C 40.097 270.896,40.308 271.299,36.113 271.306 C 34.480 271.309,32.962 271.428,32.738 271.570 M281.403 292.845 C 285.021 294.716,285.551 299.262,282.467 301.969 C 280.542 303.660,278.628 303.723,276.583 302.163 C 271.792 298.509,276.132 290.119,281.403 292.845 " stroke="none" fill="#ffffff" fill-rule="evenodd"></path><path id="path2" d="M244.964 112.764 C 244.831 113.113,244.960 113.475,245.310 113.731 C 246.014 114.246,246.061 114.190,245.851 113.096 C 245.657 112.085,245.279 111.944,244.964 112.764 M282.134 149.774 C 248.797 157.862,249.779 201.626,283.428 207.419 C 314.181 212.714,331.858 173.934,307.156 155.363 C 300.769 150.561,289.378 148.017,282.134 149.774 M27.809 290.380 L 27.809 312.692 48.011 312.692 L 68.213 312.692 68.225 290.380 L 68.238 268.068 48.023 268.068 L 27.809 268.068 27.809 290.380 M39.589 271.810 C 40.018 272.238,40.097 273.350,40.097 278.924 C 40.097 283.105,40.216 285.533,40.420 285.540 C 43.607 285.647,53.756 285.519,53.998 285.370 C 54.201 285.245,54.325 282.691,54.325 278.623 C 54.325 273.963,54.437 271.966,54.713 271.690 C 55.285 271.118,61.245 271.163,61.725 271.742 C 61.990 272.061,62.068 277.177,62.008 290.255 L 61.924 308.327 58.205 308.327 L 54.487 308.327 54.325 300.728 L 54.163 293.129 47.211 293.129 L 40.259 293.129 40.172 300.379 C 40.066 309.130,40.380 308.536,35.926 308.418 L 32.498 308.327 32.414 290.077 C 32.349 275.692,32.417 271.773,32.738 271.570 C 33.534 271.064,39.036 271.257,39.589 271.810 M186.407 289.895 C 186.407 299.143,186.449 302.880,186.499 298.199 C 186.550 293.518,186.550 285.951,186.499 281.384 C 186.449 276.817,186.407 280.647,186.407 289.895 M277.097 293.055 C 272.988 295.824,273.988 302.251,278.673 303.188 C 280.711 303.596,283.148 302.086,284.090 299.833 C 285.963 295.349,280.931 290.472,277.097 293.055 " stroke="none" fill="#77c47c" fill-rule="evenodd"></path></g></svg>